<svg id="Grupo_4036" data-name="Grupo 4036" xmlns="http://www.w3.org/2000/svg" width="113.998" height="80" viewBox="0 0 113.998 80">
  <path id="Trazado_3175" data-name="Trazado 3175" d="M886.661,727.335a9.039,9.039,0,0,0,3.333,4.579,7.782,7.782,0,0,0-2.68-10.2A9.039,9.039,0,0,0,886.661,727.335Z" transform="translate(-864.211 -652.929)" fill="#3f3d56"/>
  <path id="Trazado_3176" data-name="Trazado 3176" d="M898.969,750.266a9.038,9.038,0,0,1,2.3,5.173,7.782,7.782,0,0,1-7.5-7.415A9.038,9.038,0,0,1,898.969,750.266Z" transform="translate(-875.397 -676.456)" fill="#0c9fff"/>
  <path id="Trazado_3177" data-name="Trazado 3177" d="M193.634,636.245h-3.9l-9.618-3.764s-6.83-2.788-6.273,2.509,1.533,12.406,1.533,12.406,3.067-1.394,4.739-.976.558-8.5.558-8.5,13.66,6.551,14.915,5.715,1.533-6.691,1.533-6.691Z" transform="translate(-94.969 -572.498)" fill="#2f2e41"/>
  <path id="Trazado_3178" data-name="Trazado 3178" d="M193.634,636.245h-3.9l-9.618-3.764s-6.83-2.788-6.273,2.509,1.533,12.406,1.533,12.406,3.067-1.394,4.739-.976.558-8.5.558-8.5,13.66,6.551,14.915,5.715,1.533-6.691,1.533-6.691Z" transform="translate(-94.969 -572.498)" opacity="0.1"/>
  <path id="Trazado_3179" data-name="Trazado 3179" d="M256.35,558.82l-4.723,6.786-11.012,9.2s-10.176,2.37-8.782,4.042,9.9-1.673,9.9-1.673,12.685-9.2,13.1-9.9,5.018-7.248,5.018-7.248Z" transform="translate(-163.834 -507.296)" fill="#a0616a"/>
  <path id="Trazado_3180" data-name="Trazado 3180" d="M256.35,558.82l-4.723,6.786-11.012,9.2s-10.176,2.37-8.782,4.042,9.9-1.673,9.9-1.673,12.685-9.2,13.1-9.9,5.018-7.248,5.018-7.248Z" transform="translate(-163.834 -507.296)" opacity="0.1"/>
  <path id="Trazado_3181" data-name="Trazado 3181" d="M197.927,507.092l-3.067,5.994s.7,2.927,1.812,3.206,5.854-3.624,5.854-3.624Z" transform="translate(-102.608 -461.045)" fill="#d0cde1"/>
  <path id="Trazado_3182" data-name="Trazado 3182" d="M197.927,507.092l-3.067,5.994s.7,2.927,1.812,3.206,5.854-3.624,5.854-3.624Z" transform="translate(-102.608 -461.045)" opacity="0.1"/>
  <path id="Trazado_3183" data-name="Trazado 3183" d="M552.385,643.395l-.906,3.737a.234.234,0,0,0,0,.126l4.109,12.841a.233.233,0,0,0,.454-.045l.568-5a.233.233,0,0,0-.01-.1l-3.772-11.575a.233.233,0,0,0-.449.017Z" transform="translate(-494.477 -582.751)" fill="#2f2e41"/>
  <path id="Trazado_3184" data-name="Trazado 3184" d="M492.932,575.493,492.1,578.7l3.624,11.709.836-3.624Z" transform="translate(-434.691 -514.534)" fill="#f2f2f2"/>
  <path id="Trazado_3185" data-name="Trazado 3185" d="M430.892,758.237c-.139.418-14.5-.139-14.636-.279a3.025,3.025,0,0,1-.307-.558c-.131-.279-.251-.558-.251-.558l.558-4.513,14.218-.5s.355,3.825.428,5.576A4.185,4.185,0,0,1,430.892,758.237Z" transform="translate(-354.39 -679.854)" fill="#2f2e41"/>
  <path id="Trazado_3186" data-name="Trazado 3186" d="M418.692,689.965l-.279,3.9h6.273v-3.9Z" transform="translate(-355.014 -616.879)" opacity="0.1"/>
  <path id="Trazado_3187" data-name="Trazado 3187" d="M364.5,701.743l-.037-.007.177,1.68h3.485v-1.673Z" transform="translate(-292.742 -627.403)" opacity="0.1"/>
  <path id="Trazado_3188" data-name="Trazado 3188" d="M430.641,805.291c-.139.418-14.5-.139-14.636-.279a3.023,3.023,0,0,1-.307-.558h14.953A4.188,4.188,0,0,1,430.641,805.291Z" transform="translate(-354.139 -726.909)" opacity="0.1"/>
  <circle id="Elipse_1252" data-name="Elipse 1252" cx="6.273" cy="6.273" r="6.273" transform="translate(86.956 31.552)" fill="#a0616a"/>
  <path id="Trazado_3189" data-name="Trazado 3189" d="M163.94,436.5a28.093,28.093,0,0,1,2.509,5.576c.418,1.951,6.273-3.9,6.273-3.9l.767-2.021s-5.506-2.579-5.088-4.67S163.94,436.5,163.94,436.5Z" transform="translate(-70.293 -393.096)" fill="#a0616a"/>
  <path id="Trazado_3190" data-name="Trazado 3190" d="M228.808,584.722l-5.715,7.527-13.66,10.176s-9.9,2.091-7.667,3.624,8.642-1.394,8.642-1.394,13.8-7.388,16.727-10.454,8.363-8.224,8.363-8.224Z" transform="translate(-136.277 -530.454)" fill="#a0616a"/>
  <path id="Trazado_3191" data-name="Trazado 3191" d="M95.13,687.915l-1.673,2.648-9.983-3.141a7.849,7.849,0,0,0-6.535.788c-1.742,1.1-2.858,2.84-.348,5.419,5.018,5.158,8.363,2.37,8.363,2.37s16.866,7.945,19.654,4.042,2.927-5.854,2.927-5.854S96.8,687.5,95.13,687.915Z" transform="translate(5.067 -621.938)" fill="#2f2e41"/>
  <path id="Trazado_3192" data-name="Trazado 3192" d="M253.194,771.5s-4.461,2.927.836,4.321a14.034,14.034,0,0,0,9.2-.558s4.6,0,4.6-2.37-1.533-2.648-1.533-2.648l-4.739.7S255.843,769.409,253.194,771.5Z" transform="translate(-173.905 -696.323)" fill="#d0cde1"/>
  <path id="Trazado_3193" data-name="Trazado 3193" d="M182.357,350.433a4.677,4.677,0,0,1-1.314.471,1.2,1.2,0,0,1-1.212-.519,1.631,1.631,0,0,1-.138-.737,3.284,3.284,0,0,1,.524-2.185c.309-.377.759-.615,1.079-.982a4.642,4.642,0,0,0,.545-.891,4.884,4.884,0,0,1,2.82-2.625,6.115,6.115,0,0,1,1.646-.126l3.22.045a4.213,4.213,0,0,1,4.032,2.185,12.621,12.621,0,0,1,1.424,1.965,6.894,6.894,0,0,1,.817,3.378,3.16,3.16,0,0,1-.116.894,4.96,4.96,0,0,1-.351.772,4.05,4.05,0,0,0-.282,3.812,7.324,7.324,0,0,1-3.13-2.126,5.861,5.861,0,0,0-1.087-1.313,1.088,1.088,0,0,0-1.52.126,1.362,1.362,0,0,0-.154.638,2.924,2.924,0,0,1-.176,1.077.807.807,0,0,1-.876.5c-.607-.171-.549-1.1-1.016-1.526-.355-.321-.9-.26-1.359-.406a2.017,2.017,0,0,1-1.157-1.14c-.173-.387-.17-1.4-.5-1.611C183.669,349.845,182.737,350.263,182.357,350.433Z" transform="translate(-94.274 -314.186)" fill="#2f2e41"/>
  <path id="Trazado_3194" data-name="Trazado 3194" d="M70.837,472.09a1.654,1.654,0,0,0-.861,0c-.895.24-2.9.876-3.331,1.844a15.612,15.612,0,0,1-2.509,3.206s-2.648,2.648-2.091,4.461a12.35,12.35,0,0,0,2.648,3.9s-.558,8.642,2.23,10.873,3.9.7,3.9,2.788,8.642,8.642,10.315,4.6c0,0-.836-7.527-.558-10.176C80.859,490.98,80.457,474.695,70.837,472.09Z" transform="translate(32.856 -429.704)" fill="#d0cde1"/>
  <path id="Trazado_3195" data-name="Trazado 3195" d="M147.171,502.686s-8.5,6.273-6.97,8.921c0,0,5.157,2.509,6.273,2.37s5.436-5.018,6.551-5.436S154.7,500.6,147.171,502.686Z" transform="translate(-47.949 -456.779)" fill="#d0cde1"/>
  <circle id="Elipse_1253" data-name="Elipse 1253" cx="6.886" cy="6.886" r="6.886" transform="translate(54.347 18.268)" fill="#f2f2f2"/>
  <path id="Trazado_3196" data-name="Trazado 3196" d="M732.649,157.282h38.588v-8.075H732.649Zm38.418-.17H732.819v-7.735h38.248Z" transform="translate(-728.291 -141.069)" fill="#3f3d56"/>
  <rect id="Rectángulo_2555" data-name="Rectángulo 2555" width="38.418" height="7.905" transform="translate(7.163 9.753)" fill="#016db3"/>
  <circle id="Elipse_1254" data-name="Elipse 1254" cx="0.595" cy="0.595" r="0.595" transform="translate(69.272 1.02)" fill="#016db3"/>
  <circle id="Elipse_1255" data-name="Elipse 1255" cx="0.595" cy="0.595" r="0.595" transform="translate(67.232 1.02)" fill="#016db3"/>
  <circle id="Elipse_1256" data-name="Elipse 1256" cx="0.595" cy="0.595" r="0.595" transform="translate(65.192 1.02)" fill="#016db3"/>
  <path id="Trazado_3197" data-name="Trazado 3197" d="M462.487,118.964h71.567V72.386H462.487Zm71.4-.17H462.657V72.556h71.227Z" transform="translate(-462.487 -72.386)" fill="#3f3d56"/>
  <rect id="Rectángulo_2556" data-name="Rectángulo 2556" width="71.397" height="0.17" transform="translate(0.085 2.578)" fill="#3f3d56"/>
  <path id="Trazado_3198" data-name="Trazado 3198" d="M474.4,80.164a.68.68,0,1,0-.68-.68A.68.68,0,0,0,474.4,80.164Zm0-1.19a.51.51,0,1,1-.51.51A.51.51,0,0,1,474.4,78.975Z" transform="translate(-404.702 -78.125)" fill="#3f3d56"/>
  <path id="Trazado_3199" data-name="Trazado 3199" d="M493.655,80.164a.68.68,0,1,0-.68-.68A.68.68,0,0,0,493.655,80.164Zm0-1.19a.51.51,0,1,1-.51.51A.51.51,0,0,1,493.655,78.975Z" transform="translate(-425.998 -78.125)" fill="#3f3d56"/>
  <path id="Trazado_3200" data-name="Trazado 3200" d="M512.91,80.164a.68.68,0,1,0-.68-.68A.68.68,0,0,0,512.91,80.164Zm0-1.19a.51.51,0,1,1-.51.51.51.51,0,0,1,.51-.51Z" transform="translate(-447.293 -78.125)" fill="#3f3d56"/>
  <rect id="Rectángulo_2557" data-name="Rectángulo 2557" width="0.17" height="43.896" transform="translate(48.981 2.663)" fill="#3f3d56"/>
  <rect id="Rectángulo_2558" data-name="Rectángulo 2558" width="12.494" height="1.7" transform="translate(28.539 24.243)" fill="#f2f2f2"/>
  <rect id="Rectángulo_2559" data-name="Rectángulo 2559" width="12.494" height="1.7" transform="translate(8.905 24.243)" fill="#f2f2f2"/>
  <path id="Trazado_3201" data-name="Trazado 3201" d="M756.317,294.289h12.664v-1.87H756.317Zm12.494-.17H756.487v-1.53h12.324Z" transform="translate(-728.543 -269.112)" fill="#3f3d56"/>
  <rect id="Rectángulo_2560" data-name="Rectángulo 2560" width="12.494" height="1.7" transform="translate(28.539 37.416)" fill="#f2f2f2"/>
  <path id="Trazado_3202" data-name="Trazado 3202" d="M756.317,418.648h12.664v-1.87H756.317Zm12.494-.17H756.487v-1.53h12.324Z" transform="translate(-728.543 -380.297)" fill="#3f3d56"/>
  <rect id="Rectángulo_2561" data-name="Rectángulo 2561" width="32.129" height="1.7" transform="translate(8.863 30.659)" fill="#f2f2f2"/>
  <path id="Trazado_3203" data-name="Trazado 3203" d="M756.719,356.468h32.3V354.6h-32.3Zm32.129-.17H756.888v-1.53h31.959Z" transform="translate(-748.621 -324.704)" fill="#3f3d56"/>
  <path id="Trazado_3204" data-name="Trazado 3204" d="M941.651,294.289h12.664v-1.87H941.651Zm12.494-.17H941.821v-1.53h12.324Z" transform="translate(-933.511 -269.112)" fill="#3f3d56"/>
  <path id="Trazado_3205" data-name="Trazado 3205" d="M512.024,239.828a6.992,6.992,0,1,0-6.992-6.992A6.992,6.992,0,0,0,512.024,239.828Zm0-13.772a6.78,6.78,0,1,1-6.78,6.78A6.78,6.78,0,0,1,512.024,226.056Z" transform="translate(-451.956 -209.589)" fill="#3f3d56"/>
  <rect id="Rectángulo_2562" data-name="Rectángulo 2562" width="29.981" height="0.212" transform="translate(4.767 78.859)" fill="#3f3d56"/>
</svg>
