<svg xmlns="http://www.w3.org/2000/svg" width="120.217" height="104" viewBox="0 0 120.217 104">
  <g id="Grupo_4051" data-name="Grupo 4051" transform="translate(-6.014)">
    <rect id="Rectángulo_2625" data-name="Rectángulo 2625" width="11.79" height="3.564" rx="1.782" transform="translate(26.575 17.837)" fill="#6c63ff" opacity="0.1"/>
    <rect id="Rectángulo_2626" data-name="Rectángulo 2626" width="11.79" height="3.564" rx="1.782" transform="translate(38.912 21.404)" fill="#6c63ff" opacity="0.1"/>
    <rect id="Rectángulo_2627" data-name="Rectángulo 2627" width="11.79" height="3.564" rx="1.782" transform="translate(51.249 24.972)" fill="#6c63ff" opacity="0.1"/>
    <rect id="Rectángulo_2628" data-name="Rectángulo 2628" width="11.79" height="3.564" rx="1.782" transform="translate(26.575 12.475)" fill="#6c63ff" opacity="0.1"/>
    <rect id="Rectángulo_2629" data-name="Rectángulo 2629" width="11.79" height="3.564" rx="1.782" transform="translate(38.912 16.04)" fill="#6c63ff" opacity="0.1"/>
    <rect id="Rectángulo_2630" data-name="Rectángulo 2630" width="11.79" height="3.564" rx="1.782" transform="translate(51.249 19.621)" fill="#6c63ff" opacity="0.1"/>
    <rect id="Rectángulo_2631" data-name="Rectángulo 2631" width="11.79" height="3.564" rx="1.782" transform="translate(64.957 17.837)" fill="#6c63ff" opacity="0.1"/>
    <rect id="Rectángulo_2632" data-name="Rectángulo 2632" width="11.79" height="3.564" rx="1.782" transform="translate(77.294 21.404)" fill="#6c63ff" opacity="0.1"/>
    <rect id="Rectángulo_2633" data-name="Rectángulo 2633" width="11.79" height="3.564" rx="1.782" transform="translate(89.631 24.972)" fill="#6c63ff" opacity="0.1"/>
    <rect id="Rectángulo_2634" data-name="Rectángulo 2634" width="11.79" height="3.564" rx="1.782" transform="translate(64.957 12.475)" fill="#6c63ff" opacity="0.1"/>
    <rect id="Rectángulo_2635" data-name="Rectángulo 2635" width="11.79" height="3.564" rx="1.782" transform="translate(77.294 16.04)" fill="#6c63ff" opacity="0.1"/>
    <rect id="Rectángulo_2636" data-name="Rectángulo 2636" width="11.79" height="3.564" rx="1.782" transform="translate(89.631 19.621)" fill="#6c63ff" opacity="0.1"/>
    <rect id="Rectángulo_2637" data-name="Rectángulo 2637" width="11.79" height="3.564" rx="1.782" transform="translate(26.575 5.347)" fill="#6c63ff" opacity="0.1"/>
    <rect id="Rectángulo_2638" data-name="Rectángulo 2638" width="11.79" height="3.564" rx="1.782" transform="translate(38.912 8.911)" fill="#6c63ff" opacity="0.1"/>
    <rect id="Rectángulo_2639" data-name="Rectángulo 2639" width="11.79" height="3.564" rx="1.782" transform="translate(51.249 12.475)" fill="#6c63ff" opacity="0.1"/>
    <rect id="Rectángulo_2640" data-name="Rectángulo 2640" width="11.79" height="3.564" rx="1.782" transform="translate(26.575)" fill="#6c63ff" opacity="0.1"/>
    <rect id="Rectángulo_2641" data-name="Rectángulo 2641" width="11.79" height="3.564" rx="1.782" transform="translate(38.912 3.564)" fill="#6c63ff" opacity="0.1"/>
    <rect id="Rectángulo_2642" data-name="Rectángulo 2642" width="11.79" height="3.564" rx="1.782" transform="translate(51.249 7.129)" fill="#6c63ff" opacity="0.1"/>
    <rect id="Rectángulo_2643" data-name="Rectángulo 2643" width="11.79" height="3.564" rx="1.782" transform="translate(64.957 5.347)" fill="#6c63ff" opacity="0.1"/>
    <rect id="Rectángulo_2644" data-name="Rectángulo 2644" width="11.79" height="3.564" rx="1.782" transform="translate(77.294 8.911)" fill="#6c63ff" opacity="0.1"/>
    <rect id="Rectángulo_2645" data-name="Rectángulo 2645" width="11.79" height="3.564" rx="1.782" transform="translate(89.631 12.475)" fill="#6c63ff" opacity="0.1"/>
    <rect id="Rectángulo_2646" data-name="Rectángulo 2646" width="11.79" height="3.564" rx="1.782" transform="translate(64.957)" fill="#6c63ff" opacity="0.1"/>
    <rect id="Rectángulo_2647" data-name="Rectángulo 2647" width="11.79" height="3.564" rx="1.782" transform="translate(77.294 3.564)" fill="#6c63ff" opacity="0.1"/>
    <rect id="Rectángulo_2648" data-name="Rectángulo 2648" width="11.79" height="3.564" rx="1.782" transform="translate(89.631 7.129)" fill="#6c63ff" opacity="0.1"/>
    <rect id="Rectángulo_2649" data-name="Rectángulo 2649" width="11.79" height="3.564" rx="1.782" transform="translate(26.575 81.364)" fill="#6c63ff" opacity="0.1"/>
    <rect id="Rectángulo_2650" data-name="Rectángulo 2650" width="11.79" height="3.564" rx="1.782" transform="translate(38.912 84.944)" fill="#6c63ff" opacity="0.1"/>
    <rect id="Rectángulo_2651" data-name="Rectángulo 2651" width="11.79" height="3.564" rx="1.782" transform="translate(51.249 88.509)" fill="#6c63ff" opacity="0.1"/>
    <rect id="Rectángulo_2652" data-name="Rectángulo 2652" width="11.79" height="3.564" rx="1.782" transform="translate(26.575 76.013)" fill="#6c63ff" opacity="0.1"/>
    <rect id="Rectángulo_2653" data-name="Rectángulo 2653" width="11.79" height="3.564" rx="1.782" transform="translate(38.912 79.58)" fill="#6c63ff" opacity="0.1"/>
    <rect id="Rectángulo_2654" data-name="Rectángulo 2654" width="11.79" height="3.564" rx="1.782" transform="translate(51.249 83.148)" fill="#6c63ff" opacity="0.1"/>
    <rect id="Rectángulo_2655" data-name="Rectángulo 2655" width="11.79" height="3.564" rx="1.782" transform="translate(64.957 81.364)" fill="#6c63ff" opacity="0.1"/>
    <rect id="Rectángulo_2656" data-name="Rectángulo 2656" width="11.79" height="3.564" rx="1.782" transform="translate(77.294 84.944)" fill="#6c63ff" opacity="0.1"/>
    <rect id="Rectángulo_2657" data-name="Rectángulo 2657" width="11.79" height="3.564" rx="1.782" transform="translate(89.631 88.509)" fill="#6c63ff" opacity="0.1"/>
    <rect id="Rectángulo_2658" data-name="Rectángulo 2658" width="11.79" height="3.564" rx="1.782" transform="translate(64.957 76.013)" fill="#6c63ff" opacity="0.1"/>
    <rect id="Rectángulo_2659" data-name="Rectángulo 2659" width="11.79" height="3.564" rx="1.782" transform="translate(77.294 79.58)" fill="#6c63ff" opacity="0.1"/>
    <rect id="Rectángulo_2660" data-name="Rectángulo 2660" width="11.79" height="3.564" rx="1.782" transform="translate(89.631 83.148)" fill="#6c63ff" opacity="0.1"/>
    <rect id="Rectángulo_2661" data-name="Rectángulo 2661" width="11.79" height="3.564" rx="1.782" transform="translate(26.575 68.878)" fill="#6c63ff" opacity="0.1"/>
    <rect id="Rectángulo_2662" data-name="Rectángulo 2662" width="11.79" height="3.564" rx="1.782" transform="translate(38.912 72.445)" fill="#6c63ff" opacity="0.1"/>
    <rect id="Rectángulo_2663" data-name="Rectángulo 2663" width="11.79" height="3.564" rx="1.782" transform="translate(51.249 76.013)" fill="#6c63ff" opacity="0.1"/>
    <rect id="Rectángulo_2664" data-name="Rectángulo 2664" width="11.79" height="3.564" rx="1.782" transform="translate(26.575 63.527)" fill="#6c63ff" opacity="0.1"/>
    <rect id="Rectángulo_2665" data-name="Rectángulo 2665" width="11.79" height="3.564" rx="1.782" transform="translate(38.912 67.094)" fill="#6c63ff" opacity="0.1"/>
    <rect id="Rectángulo_2666" data-name="Rectángulo 2666" width="11.79" height="3.564" rx="1.782" transform="translate(51.249 70.662)" fill="#6c63ff" opacity="0.1"/>
    <rect id="Rectángulo_2667" data-name="Rectángulo 2667" width="11.79" height="3.564" rx="1.782" transform="translate(64.957 68.878)" fill="#6c63ff" opacity="0.1"/>
    <rect id="Rectángulo_2668" data-name="Rectángulo 2668" width="11.79" height="3.564" rx="1.782" transform="translate(77.294 72.445)" fill="#6c63ff" opacity="0.1"/>
    <rect id="Rectángulo_2669" data-name="Rectángulo 2669" width="11.79" height="3.564" rx="1.782" transform="translate(89.631 76.013)" fill="#6c63ff" opacity="0.1"/>
    <rect id="Rectángulo_2670" data-name="Rectángulo 2670" width="11.79" height="3.564" rx="1.782" transform="translate(64.957 63.527)" fill="#6c63ff" opacity="0.1"/>
    <rect id="Rectángulo_2671" data-name="Rectángulo 2671" width="11.79" height="3.564" rx="1.782" transform="translate(77.294 67.094)" fill="#6c63ff" opacity="0.1"/>
    <rect id="Rectángulo_2672" data-name="Rectángulo 2672" width="11.79" height="3.564" rx="1.782" transform="translate(89.631 70.662)" fill="#6c63ff" opacity="0.1"/>
    <ellipse id="Elipse_1305" data-name="Elipse 1305" cx="60.109" cy="4.935" rx="60.109" ry="4.935" transform="translate(6.014 94.129)" fill="#6c63ff" opacity="0.1"/>
    <path id="Trazado_4381" data-name="Trazado 4381" d="M7.21,0H92.718a7.21,7.21,0,0,1,7.21,7.21V42.828a7.21,7.21,0,0,1-7.21,7.21H7.21A7.21,7.21,0,0,1,0,42.828V7.21A7.21,7.21,0,0,1,7.21,0Z" transform="translate(16.296 19.086)" fill="#fff"/>
    <path id="Trazado_4331" data-name="Trazado 4331" d="M118.87,482H218.8v2.028a.988.988,0,0,1-.988.988H119.858a.988.988,0,0,1-.988-.988Z" transform="translate(-102.574 -415.866)" opacity="0.1"/>
    <rect id="Rectángulo_2674" data-name="Rectángulo 2674" width="7.403" height="3.701" rx="1.851" transform="translate(26.027 62.429)" fill="#6c63ff"/>
    <rect id="Rectángulo_2675" data-name="Rectángulo 2675" width="5.072" height="0.548" rx="0.274" transform="translate(35.485 65.583)" fill="#6c63ff"/>
    <path id="Trazado_4332" data-name="Trazado 4332" d="M300.687,266.566c3.618.668,7.308,0,10.911-.452l10.949-1.371c.443-.056,1.087-.321,1.348.221a4.175,4.175,0,0,1,.059,1.308c.029.96.026,1.919,0,2.879-.049,1.834-.184,3.664-.355,5.49-.333,3.574-.8,7.129-1.041,10.716-.121,1.826-.181,3.658-.127,5.484.012.436.03.872.056,1.307.029.487.247,1.209-.284,1.534a3.922,3.922,0,0,1-1.246.232c-.548.086-1.1.155-1.656.211a105.575,105.575,0,0,1-11.121.193l-11.173-.058-2.725-.015c-.247,0-1.137.148-1.289-.145a2.9,2.9,0,0,1,.137-.865q.063-.387.137-.772c.318-1.8.694-3.595,1.072-5.385a95.445,95.445,0,0,0,1.98-11.617c.166-1.967.056-3.952.259-5.915.095-.912.207-2.946,1.42-3.027,1.028-.069,2.087,0,3.117,0a.206.206,0,0,0,0-.411c-.973,0-1.948-.026-2.921-.007a1.39,1.39,0,0,0-1.405.761c-.788,1.527-.707,3.564-.732,5.231a63.479,63.479,0,0,1-1.47,11.8c-.4,1.965-.835,3.922-1.234,5.888-.188.939-.367,1.881-.532,2.825-.077.45-.465,1.441-.123,1.853s1.391.191,1.862.193l3.271.019,6.268.036c4.05.023,8.113.137,12.161.018a28.444,28.444,0,0,0,5.858-.6.938.938,0,0,0,.853-.993c.033-.927-.118-1.882-.137-2.813-.137-7.965,1.734-15.819,1.542-23.787-.012-.542.192-1.907-.4-2.235a1.5,1.5,0,0,0-.891-.034c-.535.062-1.068.137-1.6.2l-6.944.866c-2.219.274-4.438.57-6.661.823a23.6,23.6,0,0,1-7.077,0c-.259-.048-.37.348-.11.4Z" transform="translate(-269.704 -237.694)" fill="#6c63ff"/>
    <path id="Trazado_4333" data-name="Trazado 4333" d="M318.754,305.683l27.394-1.344c.265-.014.266-.425,0-.411l-27.394,1.344C318.491,305.284,318.49,305.7,318.754,305.683Z" transform="translate(-292.137 -271.969)" fill="#6c63ff"/>
    <path id="Trazado_4334" data-name="Trazado 4334" d="M380.383,283.659a.685.685,0,0,0,.243,1.106,1.8,1.8,0,0,0,1.168-.064c.548-.137,1.1-.259,1.66-.359a22.644,22.644,0,0,1,3.714-.345c.568-.007,1.131.019,1.7.044a1.835,1.835,0,0,0,1.2-.206.776.776,0,0,0,.137-1.212c-.548-.5-1.73-.21-2.363-.158a53,53,0,0,0-6.835,1.02c-.258.055-.149.452.11.4q2.23-.481,4.5-.773,1.113-.137,2.23-.232c.351-.029.7-.055,1.053-.075.137-.008.282-.023.422-.019.435.01.485-.069.225.457-.232.465-.158.411-.559.4-.17,0-.34-.019-.51-.027q-.522-.022-1.045-.023-1.112,0-2.218.107c-.625.06-1.249.145-1.867.255-.387.069-.77.148-1.153.236-.169.04-.339.081-.507.123-.081.022-.163.041-.244.062q-.45.156-.766-.411c.184-.191-.106-.483-.291-.291Z" transform="translate(-345.327 -253.337)" fill="#6c63ff"/>
    <path id="Trazado_4335" data-name="Trazado 4335" d="M376.642,332.687a6.569,6.569,0,0,0-5.433,2.056c-1.023,1.249-1.605,3.392-.522,4.8,1.164,1.508,3.717,1.242,5.256.6a6.7,6.7,0,0,0,3.9-3.867c.61-2.209-1.371-3.878-3.434-3.9a.206.206,0,0,0,0,.411,3.138,3.138,0,0,1,2.879,1.614,3.027,3.027,0,0,1-.685,3.29,6.794,6.794,0,0,1-5.094,2.549,2.728,2.728,0,0,1-2.831-1.656,3.827,3.827,0,0,1,.45-2.986c1.127-1.919,3.42-2.569,5.523-2.487.265.01.265-.4,0-.411Z" transform="translate(-336.62 -296.507)" fill="#6c63ff"/>
    <path id="Trazado_4336" data-name="Trazado 4336" d="M398.875,348.255a.535.535,0,0,0-.718.548c.041.535.631.685,1.073.654.382-.033.829-.174.7-.653a.614.614,0,0,0-.335-.387.774.774,0,0,0-.387-.048c-.051,0-.515.17-.318-.034l-.324-.043a.337.337,0,0,1,.1.274.207.207,0,0,0,.308.177.274.274,0,0,1,.372.321.207.207,0,0,0,.376.159c.137-.247.3-.738.1-1a.439.439,0,0,0-.566-.021,1.987,1.987,0,0,0-.282.243c-.166.147-.274.215-.212-.066a1.778,1.778,0,0,1,1.036-1.123l-.3-.232a4.334,4.334,0,0,1-.829,1.625l.351.145a.916.916,0,0,1,.559-.892h-.2l.107.175c-.04.259.356.37.4.108.052-.339-.162-.779-.558-.613a1.291,1.291,0,0,0-.709,1.221c0,.165.233.292.352.147a4.834,4.834,0,0,0,.934-1.808.208.208,0,0,0-.3-.232,2.3,2.3,0,0,0-1,.869c-.167.274-.377.7-.207,1.017a.436.436,0,0,0,.6.169,1.6,1.6,0,0,0,.344-.274c.051-.045.107-.123.174-.137.06-.041.058-.018-.01.073a.747.747,0,0,1-.119.4l.376.158a.685.685,0,0,0-.975-.786l.31.178a.747.747,0,0,0-.155-.484.208.208,0,0,0-.322-.043.538.538,0,0,0,.014.8c.2.149.292,0,.507-.034.731-.095.3.234.047.245a.972.972,0,0,1-.344-.025q-.429-.145-.053-.374c.245.1.351-.3.11-.4Z" transform="translate(-360.824 -309.029)" fill="#6c63ff"/>
    <path id="Trazado_4337" data-name="Trazado 4337" d="M388.13,360.787c.169.548-.528.729-.858.919a1.912,1.912,0,0,0-.594.52,3.969,3.969,0,0,0-.588,1.608c-.052.259.344.369.4.11a4.662,4.662,0,0,1,.347-1.183,2.089,2.089,0,0,1,1.061-.908,1,1,0,0,0,.631-1.175C388.45,360.425,388.052,360.533,388.13,360.787Z" transform="translate(-350.409 -320.808)" fill="#6c63ff"/>
    <path id="Trazado_4338" data-name="Trazado 4338" d="M392.2,360.37a.4.4,0,0,0-.343.411c0,.163.108.267.182.4a3.141,3.141,0,0,1,.4.865,1.867,1.867,0,0,1-.023,1.1c-.284.509-.8.411-1.234.411-.411,0-.729.137-.716-.436a1.823,1.823,0,0,1,.411-.9l-.376-.049a7.164,7.164,0,0,1,.125,1.269c0,.191.292.3.382.1a7.939,7.939,0,0,0,.522-1.445l-.4-.055.071,1.042a.207.207,0,0,0,.382.1.466.466,0,0,0,.1-.185c.014-.064-.112-.5-.163-.344l.4.055.029-.99-.411.055a2.048,2.048,0,0,1,.077.864c-.026.229.359.281.411.055l.258-1.33-.376.048a.909.909,0,0,1,.07.592c-.03.263.381.26.411,0a1.445,1.445,0,0,0-.126-.8.207.207,0,0,0-.376.049l-.259,1.33.4.055a2.242,2.242,0,0,0-.092-.972.206.206,0,0,0-.4.053l-.029.99a.207.207,0,0,0,.4.055l.022-.067a.208.208,0,0,0-.052-.2c-.426-.463-.513.274-.661.478l.384.1-.071-1.042a.207.207,0,0,0-.4-.055,7.372,7.372,0,0,1-.48,1.348l.384.1a7.757,7.757,0,0,0-.137-1.379c-.036-.189-.284-.181-.376-.049-.274.395-.749,1.257-.383,1.73.319.411,1.324.252,1.753.226.677-.038.923-.467,1-1.106a2.709,2.709,0,0,0-.051-.916c-.037-.162-.411-1.187-.524-1.167.26-.048.149-.446-.11-.4Z" transform="translate(-353.793 -320.666)" fill="#6c63ff"/>
    <path id="Trazado_4339" data-name="Trazado 4339" d="M392.585,363.546l-1.123,1.482.355.207.823-1.19-.376-.159-.41,1.564a.207.207,0,0,0,.376.159,7.225,7.225,0,0,1,.626-.882l-.343-.2a2.239,2.239,0,0,1-.517.95l.344.2a1.837,1.837,0,0,1,.149-.548c.106-.237-.229-.447-.355-.208a4.825,4.825,0,0,1-.4.622l.376.049.084-.391-.376-.049.06.343a.207.207,0,0,0,.344.09,4.094,4.094,0,0,0,.823-1.241H392.7a1.846,1.846,0,0,1,.193.548c.049.247.377.155.4-.055a11.144,11.144,0,0,0,.09-1.385h-.411v.862c0,.223.366.289.4.055a1.571,1.571,0,0,1,.2-.589h-.361a.914.914,0,0,1,.137.466.206.206,0,0,0,.411,0l.052-.274h-.4c.04.243.191,1.609-.345,1.449-.09-.022-.117-.016-.078.015l.122-.26.287-.607-.384-.1a1.5,1.5,0,0,1-.119.927.71.71,0,0,1-.775.159,1.371,1.371,0,0,1-.358-.376l-.281.274c.228.166.6.573.89.6.223.018.411-.167.558-.315a2.389,2.389,0,0,0,.67-1.759.206.206,0,1,0-.411,0v.469a.206.206,0,1,0,.411,0v-1.15a.206.206,0,1,0-.411,0,4.938,4.938,0,0,1-.071.823l.4.055a9.467,9.467,0,0,1-.045-.986.206.206,0,0,0-.4-.055c-.062.262-.137.52-.21.776l.376-.049-.029-.11c-.019-.262-.43-.263-.411,0a.753.753,0,0,0,.085.318.208.208,0,0,0,.376-.049c.078-.258.148-.515.21-.776l-.4-.055a9.458,9.458,0,0,0,.045.986c.021.211.361.3.4.055a5.663,5.663,0,0,0,.086-.938H393.2v1.15h.411v-.469H393.2a1.977,1.977,0,0,1-.5,1.409,1.682,1.682,0,0,1-.173.17c-.1.093-.186.08-.265-.042a3.424,3.424,0,0,1-.566-.411c-.17-.122-.4.119-.282.281.315.419.786.887,1.371.685.616-.218.7-1.051.653-1.6-.015-.182-.288-.306-.382-.1-.137.289-.274.577-.411.868a.766.766,0,0,0-.123.362c.045.308.419.258.65.24.892-.067.751-1.333.648-1.969-.034-.211-.341-.178-.4,0a1.211,1.211,0,0,0-.067.389h.411a1.629,1.629,0,0,0-.193-.673.207.207,0,0,0-.355,0,2,2,0,0,0-.244.685l.411.055v-.862a.206.206,0,0,0-.411,0,11.15,11.15,0,0,1-.091,1.385l.4-.055a2.355,2.355,0,0,0-.234-.642.207.207,0,0,0-.355,0,3.751,3.751,0,0,1-.758,1.157l.344.09-.06-.343c-.032-.182-.289-.188-.376-.049a.9.9,0,0,0-.125.707c.034.195.281.174.376.049a4.811,4.811,0,0,0,.4-.621l-.355-.208a2.338,2.338,0,0,0-.192.646c-.025.181.191.37.344.2a2.742,2.742,0,0,0,.622-1.132c.051-.186-.207-.363-.344-.2a7.852,7.852,0,0,0-.685.96l.376.159.418-1.559a.207.207,0,0,0-.376-.159l-.823,1.191c-.154.221.2.411.355.207l1.119-1.481c.159-.211-.2-.411-.355-.208Z" transform="translate(-354.975 -322.918)" fill="#6c63ff"/>
    <path id="Trazado_4340" data-name="Trazado 4340" d="M525.817,312.13a35.664,35.664,0,0,0,4.406-3.763c1.577-1.361,3.231-2.629,4.935-3.83,3.309-2.331,6.785-4.416,10.257-6.5a.206.206,0,0,0-.207-.355c-3.473,2.08-6.949,4.161-10.259,6.5-1.562,1.1-3.086,2.259-4.547,3.493-1.59,1.344-3.006,3.016-4.8,4.1-.226.137-.019.494.207.355Z" transform="translate(-470.719 -266.559)" fill="#6c63ff"/>
    <path id="Trazado_4341" data-name="Trazado 4341" d="M674.806,253.843c-1.782.181-3.7.635-4.8,2.193a4.983,4.983,0,0,0-.037,5.056c1.01,1.564,3.075,1.62,4.679,1.115s3.264-1.393,3.249-3.309a8,8,0,0,0-.79-3.031,1.983,1.983,0,0,0-1.929-1.419c-.262.025-.265.436,0,.411,1.271-.118,1.679,1.391,1.981,2.344a3.92,3.92,0,0,1,.1,2.827,3.97,3.97,0,0,1-2.355,1.659,4.926,4.926,0,0,1-3.016.274c-1.985-.555-2.533-3.071-1.962-4.856.658-2.056,2.989-2.661,4.887-2.853.26-.026.263-.437,0-.411Z" transform="translate(-594.801 -228.753)" fill="#6c63ff"/>
    <path id="Trazado_4342" data-name="Trazado 4342" d="M694.806,369.843c-1.782.181-3.7.635-4.8,2.193a4.982,4.982,0,0,0-.037,5.056c1.01,1.564,3.075,1.62,4.679,1.115s3.264-1.393,3.249-3.309a8,8,0,0,0-.79-3.031,1.983,1.983,0,0,0-1.929-1.419c-.262.025-.265.436,0,.411,1.271-.118,1.679,1.391,1.981,2.344a3.92,3.92,0,0,1,.1,2.827,3.97,3.97,0,0,1-2.355,1.659,4.926,4.926,0,0,1-3.016.274c-1.985-.555-2.534-3.071-1.962-4.856.658-2.056,2.989-2.661,4.887-2.853.26-.026.263-.437,0-.411Z" transform="translate(-612.059 -328.836)" fill="#6c63ff"/>
    <path id="Trazado_4343" data-name="Trazado 4343" d="M689.537,238.923l1.3,1.481a.207.207,0,0,0,.343-.092,7.931,7.931,0,0,0,.286-2.226,7.331,7.331,0,0,1,.583-2.272,7.667,7.667,0,0,1,3.068-3.516c.226-.137.019-.494-.207-.355a8.05,8.05,0,0,0-3.1,3.408,7.877,7.877,0,0,0-.685,2.176,12.485,12.485,0,0,1-.341,2.676l.344-.092-1.291-1.478c-.175-.2-.465.093-.291.291Z" transform="translate(-612.221 -209.832)" fill="#6c63ff"/>
    <path id="Trazado_4344" data-name="Trazado 4344" d="M531.348,411q10.607-.324,21.219-.137a.206.206,0,0,0,0-.411q-10.609-.189-21.219.137C531.083,410.6,531.082,411.01,531.348,411Z" transform="translate(-475.588 -363.819)" fill="#6c63ff"/>
    <path id="Trazado_4345" data-name="Trazado 4345" d="M697.335,382.72a42.49,42.49,0,0,1,6.946,3.49c.225.137.432-.215.207-.355a42.943,42.943,0,0,0-7.038-3.531c-.245-.1-.352.3-.108.4Z" transform="translate(-618.879 -339.595)" fill="#6c63ff"/>
    <path id="Trazado_4346" data-name="Trazado 4346" d="M704.8,371.293a16.794,16.794,0,0,0-4.032,10.217c-.011.265.4.265.411,0a16.333,16.333,0,0,1,3.911-9.927C705.263,371.383,704.973,371.091,704.8,371.293Z" transform="translate(-621.955 -330.029)" fill="#6c63ff"/>
    <path id="Trazado_4347" data-name="Trazado 4347" d="M328.946,399.846l15.323-.2,1.762-.023c.317,0,.633-.011.95-.012a.756.756,0,0,1,.738.823c-.021.96-.624.925-1.413.96l-1.9.086-7.754.341c-1.389.062-2.779.137-4.168.185-1.253.038-3.636-.37-3.079-2.193.077-.254-.319-.362-.4-.11a2.021,2.021,0,0,0,.993,2.277c1.109.666,2.57.44,3.795.385l9.52-.432,2.311-.1a5.185,5.185,0,0,0,1.96-.182,1.673,1.673,0,0,0,.348-2.14.953.953,0,0,0-.823-.311c-.853-.033-1.72.023-2.575.034l-4.746.063-10.845.137a.206.206,0,0,0,0,.411Z" transform="translate(-300.927 -354.156)" fill="#6c63ff"/>
    <g id="Michel" transform="translate(87.995 30.878)">
      <path id="Trazado_4348" data-name="Trazado 4348" d="M769.688,753.221c-.346.217-.74.339-1.1.529a1.5,1.5,0,0,0-.8.872.548.548,0,0,0,.018.373.724.724,0,0,0,.384.3,5.825,5.825,0,0,0,4.608.052,6.068,6.068,0,0,1,.8-.315,5.172,5.172,0,0,1,1.019-.1,7.823,7.823,0,0,0,1.071-.137.942.942,0,0,0,.485-.2.9.9,0,0,0,.218-.524,4.312,4.312,0,0,0-.686-3.054,1.032,1.032,0,0,0-.3-.317,1.151,1.151,0,0,0-.476-.127c-.685-.084-1.4-.237-2.1-.254a1.408,1.408,0,0,0-1.1.566C771.005,751.609,770.582,752.663,769.688,753.221Z" transform="translate(-767.762 -687.982)" fill="#323444"/>
      <path id="Trazado_4349" data-name="Trazado 4349" d="M854.992,752.708a3.134,3.134,0,0,0,.488,1.919,2.533,2.533,0,0,0,.666.583,3,3,0,0,0,2.909.285.864.864,0,0,0,.362-.3,1.037,1.037,0,0,0-.012-.8l-1.313-4.551a9.14,9.14,0,0,0-2.85.653C854.694,750.8,854.992,752.107,854.992,752.708Z" transform="translate(-842.964 -687.571)" fill="#323444"/>
      <path id="Trazado_4350" data-name="Trazado 4350" d="M771.964,558.543c-.08.251-.367.367-.525.578a1.1,1.1,0,0,0-.1.894,2.364,2.364,0,0,0,.6,1.186,1.422,1.422,0,0,0,1.234.419,1.028,1.028,0,0,0,.838-.923,1.747,1.747,0,0,0-.129-.594l-.935-2.7a.1.1,0,0,0-.169-.074c-.221.1-.664.214-.792.443S772.057,558.3,771.964,558.543Z" transform="translate(-770.808 -521.431)" fill="#fbb3b2"/>
      <path id="Trazado_4351" data-name="Trazado 4351" d="M773,551.246a4.434,4.434,0,0,0,.96-.385.99.99,0,0,1,.988.037c.077.063.151.149.251.148a9.814,9.814,0,0,0-.614-1.952.152.152,0,0,0-.054-.075.154.154,0,0,0-.116,0l-.923.241c-.341.089-.381.062-.355.4C773.144,549.807,773.221,551.246,773,551.246Z" transform="translate(-772.282 -514.27)" fill="#323444"/>
      <path id="Trazado_4352" data-name="Trazado 4352" d="M768.789,422.6a1.3,1.3,0,0,0-.137.722,24.566,24.566,0,0,0,.192,3.634c.043.288.1.576.123.866a10,10,0,0,1,.019,1.216l-.137,5.278a3.051,3.051,0,0,1-.448,1.847.883.883,0,0,0-.16.585c.1,1.324.324,2.638.542,3.947a2.439,2.439,0,0,1,2.213.106,24.358,24.358,0,0,0,1.136-6.717,26.673,26.673,0,0,1,.156-3.361,21.384,21.384,0,0,0-.041-5.66,3.128,3.128,0,0,0-.591-1.668,2.529,2.529,0,0,0-1.371-.79A5.994,5.994,0,0,0,768.789,422.6Z" transform="translate(-768.172 -405.144)" fill="#5b5583"/>
      <path id="Trazado_4353" data-name="Trazado 4353" d="M768.789,422.6a1.3,1.3,0,0,0-.137.722,24.566,24.566,0,0,0,.192,3.634c.043.288.1.576.123.866a10,10,0,0,1,.019,1.216l-.137,5.278a3.051,3.051,0,0,1-.448,1.847.883.883,0,0,0-.16.585c.1,1.324.324,2.638.542,3.947a2.439,2.439,0,0,1,2.213.106,24.358,24.358,0,0,0,1.136-6.717,26.673,26.673,0,0,1,.156-3.361,21.384,21.384,0,0,0-.041-5.66,3.128,3.128,0,0,0-.591-1.668,2.529,2.529,0,0,0-1.371-.79A5.994,5.994,0,0,0,768.789,422.6Z" transform="translate(-768.172 -405.144)" opacity="0.1"/>
      <path id="Trazado_4354" data-name="Trazado 4354" d="M781.659,522.968a24.211,24.211,0,0,0,1.442,14.016,3.8,3.8,0,0,1,.334,1.036,5.4,5.4,0,0,1-.411,1.967,10.434,10.434,0,0,0,.089,4.564q.164.946.339,1.891a2.889,2.889,0,0,1-.062,1.838c.245,1.023.391,2.036.636,3.059a.582.582,0,0,1,.023.251.739.739,0,0,1-.251.336,1.5,1.5,0,0,0-.383,1.435,2.343,2.343,0,0,1,2.215,0,6,6,0,0,0,2.193.685,5.554,5.554,0,0,1,.114-2.712,4.108,4.108,0,0,0,.528-1.487,11.135,11.135,0,0,0-.369-1.363,3.45,3.45,0,0,1,.033-.872,21.8,21.8,0,0,0-.233-5.048,3.015,3.015,0,0,0-.23-.96,1.417,1.417,0,0,1-.24-.607c0-.256.207-.465.284-.709.137-.45-.115-1.061.265-1.339,1-.735.617-2.49.6-3.73q-.026-1.605-.137-3.208a13.663,13.663,0,0,1,.757,5.53,3.958,3.958,0,0,0,.115,1.827,7.628,7.628,0,0,1,.647,1.257,5.263,5.263,0,0,1,.032.871.9.9,0,0,0,.363.754c.019,1.322.137,2.735.158,4.057a10,10,0,0,0,.164,2.015,2.567,2.567,0,0,1,.1.65,2.717,2.717,0,0,1-.217.8A4.583,4.583,0,0,0,791.24,554a2.044,2.044,0,0,1,1.656-.927,6.01,6.01,0,0,1,1.945.285,3.81,3.81,0,0,1,.455-2.317,1.893,1.893,0,0,0,.24-.515,2.282,2.282,0,0,0-.192-1.039,5.224,5.224,0,0,1-.063-1.712,27.1,27.1,0,0,0-.254-5.747,4.874,4.874,0,0,0-.262-1.1c-.049-.126-.11-.247-.151-.374a2.951,2.951,0,0,1-.11-.7l-.158-2.193a15.412,15.412,0,0,1,.746-4.554c.158-.672.329-1.342.435-2.025.144-.93.167-1.88.378-2.8a18.035,18.035,0,0,0,.6-2.468,7.953,7.953,0,0,0-.96-3.767c-.219-.494-1.049-.444-1.582-.532a21.562,21.562,0,0,0-11.333.775A2.82,2.82,0,0,0,781.659,522.968Z" transform="translate(-779.367 -490.207)" fill="#3c354c"/>
      <path id="Trazado_4355" data-name="Trazado 4355" d="M800.858,349.981l.419,1.631a4.358,4.358,0,0,1,.188,1.153.852.852,0,0,1-.092.411.981.981,0,0,1-.261.266c-.286.218-.485.727-.813.877.169.293.4.1.706.25a7.667,7.667,0,0,0,1.608.764,3.588,3.588,0,0,0,1.668-.137,5.761,5.761,0,0,0,2.161-1,2.074,2.074,0,0,0,.972-1.752c-.685.081-1.3-.611-1.6-1.234a3.356,3.356,0,0,1-.23-.739l-.367-1.616a7.929,7.929,0,0,0-1.109.524,4.026,4.026,0,0,1-1.26.182,13.575,13.575,0,0,0-2.243.291c-.1.021-.229.085-.2.184" transform="translate(-795.839 -341.553)" fill="#fbb3b2"/>
      <path id="Trazado_4356" data-name="Trazado 4356" d="M800.858,349.981l.419,1.631a4.358,4.358,0,0,1,.188,1.153.852.852,0,0,1-.092.411.981.981,0,0,1-.261.266c-.286.218-.485.727-.813.877.169.293.4.1.706.25a7.667,7.667,0,0,0,1.608.764,3.588,3.588,0,0,0,1.668-.137,5.761,5.761,0,0,0,2.161-1,2.074,2.074,0,0,0,.972-1.752c-.685.081-1.3-.611-1.6-1.234a3.356,3.356,0,0,1-.23-.739l-.367-1.616a7.929,7.929,0,0,0-1.109.524,4.026,4.026,0,0,1-1.26.182,13.575,13.575,0,0,0-2.243.291c-.1.021-.229.085-.2.184" transform="translate(-795.839 -341.553)" opacity="0.1"/>
      <circle id="Elipse_1306" data-name="Elipse 1306" cx="3.63" cy="3.63" r="3.63" transform="translate(3.19 2.067)" fill="#fbb3b2"/>
      <path id="Trazado_4357" data-name="Trazado 4357" d="M798.266,364.607a3.289,3.289,0,0,1,.823-1.1c.511-.448,1.21-.812,1.331-1.481l1.108,1.29a.6.6,0,0,1,.137.211.532.532,0,0,1-.1.426,4.441,4.441,0,0,1-1.115,1.067,33.839,33.839,0,0,0-2.686,2.369.274.274,0,0,1-.144.088.259.259,0,0,1-.149-.042,6.236,6.236,0,0,1-1.915-1.557c-.04-.048-.089-.1-.154-.1a.2.2,0,0,0-.1.053,1.859,1.859,0,0,1-1.245.616,2.949,2.949,0,0,0,1.089-1.919,3.628,3.628,0,0,1,.156-.75.783.783,0,0,1,.535-.507,1.2,1.2,0,0,0,.307,1.472,3.027,3.027,0,0,0,1.36.659C797.963,365.494,798.1,364.966,798.266,364.607Z" transform="translate(-790.446 -352.926)" fill="#323444"/>
      <path id="Trazado_4358" data-name="Trazado 4358" d="M779.608,520.647c.517.128,1.006.344,1.508.5a7.207,7.207,0,0,0,2.831.3,1.528,1.528,0,0,0,.823-.262c.064-.052.123-.114.192-.162a1.342,1.342,0,0,1,.369-.152,10.441,10.441,0,0,0,3.331-2.073c.033-.027.07-.062.067-.106a.137.137,0,0,0-.041-.078L788.15,518a22.223,22.223,0,0,1-4.283.114,6.222,6.222,0,0,0-.88.023c-.282.033-.561.1-.839.165-1.057.23-2.137.318-3.208.469a.494.494,0,0,0-.212.066.478.478,0,0,0-.114.126l-.376.528a1.659,1.659,0,0,0-.315.6c-.088.411.1.548.446.495A3.253,3.253,0,0,1,779.608,520.647Z" transform="translate(-776.511 -487.514)" fill="#323444"/>
      <path id="Trazado_4359" data-name="Trazado 4359" d="M777.688,374.96a6.678,6.678,0,0,0-1.413-1.1,2,2,0,0,0-.685-.274.855.855,0,0,0-.7.173c-.122.108-.2.259-.317.373a1.576,1.576,0,0,1-.5.284,8.9,8.9,0,0,0-1.763,1,4.043,4.043,0,0,0-.8.738,4.511,4.511,0,0,0-.7,2.886c.012.7.685,1.223,1.149,1.748a12.878,12.878,0,0,1,1.176,1.645,2.24,2.24,0,0,1,.478,1.293,7.322,7.322,0,0,0-.215,1.131c.012.137.056.263.069.4a4.46,4.46,0,0,1-.111.823,10.457,10.457,0,0,0,.1,1.164,3.7,3.7,0,0,1-.1.794,14.829,14.829,0,0,0-.526,3.792l-.759.137a.642.642,0,0,1-.147,1.024,11.645,11.645,0,0,0,3.725.195c1.041,0,2.077.137,3.116.118a5.386,5.386,0,0,0,2.968-.8c.233-.159.447-.345.692-.484a3.414,3.414,0,0,1,1.049-.343,10.4,10.4,0,0,1,2.056-.184,1.583,1.583,0,0,0,.973-.189,1.391,1.391,0,0,0,.411-1c.04-.389.064-.78.071-1.171a5.045,5.045,0,0,0-.048-.91,5.978,5.978,0,0,0-.16-.653l-.517-1.821a6.8,6.8,0,0,1,.147-2.354.59.59,0,0,0-.123-.515c-.051-.042-.121-.071-.137-.137a.234.234,0,0,1,.033-.184,10.155,10.155,0,0,1,1.061-1.527,31.2,31.2,0,0,0,1.755-2.7,8.677,8.677,0,0,0-2.322-5.193,2.513,2.513,0,0,0-.972-.717,2.879,2.879,0,0,0-.773-.125,7.121,7.121,0,0,1-3.13-.677.6.6,0,0,0-.223-.095c-.207-.023-.358.181-.492.343a5.9,5.9,0,0,1-1.3.95A9.226,9.226,0,0,0,777.688,374.96Z" transform="translate(-770.39 -361.121)" fill="#5b5583"/>
      <path id="Trazado_4360" data-name="Trazado 4360" d="M870.456,415.443a10.3,10.3,0,0,1,.263,2.107,8.2,8.2,0,0,0,.223,1.263,2.018,2.018,0,0,0,.26.643,2.827,2.827,0,0,1,.378.532,1.285,1.285,0,0,1,.056.428l.016.946a3.4,3.4,0,0,1-.223,1.472l-.591,1.8a11.012,11.012,0,0,1-1.223,2.809.81.81,0,0,1-.352.33,1.712,1.712,0,0,1-.355.055.913.913,0,0,0-.753.887,2.082,2.082,0,0,0-.506-.517l-1.2-.96a5.138,5.138,0,0,0-1.339-.868,3.632,3.632,0,0,0,2.525-3.052,1.371,1.371,0,0,1,.137-.6c.1-.162.285-.285.3-.476.016-.24-.255-.421-.255-.661,0-.159.118-.291.17-.44a1.1,1.1,0,0,0,0-.563l-.166-.921a.7.7,0,0,0-.082-.263,1.711,1.711,0,0,0-.206-.217c-.285-.319-.159-.823,0-1.216a11.624,11.624,0,0,1,1.4-2.458,8.419,8.419,0,0,0,.558-.8c.145-.252.178-.6.332-.823C870.021,414.4,870.288,414.91,870.456,415.443Z" transform="translate(-851.764 -397.668)" fill="#5b5583"/>
      <path id="Trazado_4361" data-name="Trazado 4361" d="M859.907,504.589a.66.66,0,0,0-.156.165,1.386,1.386,0,0,1-.621.443c.137.1.262.2.391.3a17.12,17.12,0,0,1,2.6,2.491c.086-.308.6-.286.729-.581a.57.57,0,0,0,.027-.263,8.034,8.034,0,0,0-.2-1.371,1.551,1.551,0,0,0-.274-.642,1.645,1.645,0,0,0-.776-.439A2.481,2.481,0,0,0,859.907,504.589Z" transform="translate(-846.604 -475.833)" fill="#323444"/>
      <path id="Trazado_4362" data-name="Trazado 4362" d="M838.347,510.48a7.219,7.219,0,0,1-1.234.894,4.646,4.646,0,0,0-.983.433.977.977,0,0,0,.932.5,2.215,2.215,0,0,0,1.043-.383c.245-.151.533-.326.8-.221.041.208-.137.4-.137.616a.62.62,0,0,0,.348.476,4.692,4.692,0,0,0,2.861.425.257.257,0,0,0,.158-.047.247.247,0,0,0,.059-.181c.012-.217.018-.432.019-.648a.93.93,0,0,0-.4-.916,11.181,11.181,0,0,0-1.714-1.213A1.535,1.535,0,0,0,838.347,510.48Z" transform="translate(-826.757 -480.646)" fill="#fbb3b2"/>
      <path id="Trazado_4363" data-name="Trazado 4363" d="M820.544,326.051a.952.952,0,1,0,1.213.8A1.034,1.034,0,0,0,820.544,326.051Zm.207,1.722a.806.806,0,1,1,.838-.9A.878.878,0,0,1,820.751,327.773Z" transform="translate(-812.449 -321.871)" fill="#3c354c"/>
      <path id="Trazado_4364" data-name="Trazado 4364" d="M798.9,328.651a.952.952,0,1,0,1.213.8A1.034,1.034,0,0,0,798.9,328.651Zm.207,1.721a.806.806,0,1,1,.838-.9A.876.876,0,0,1,799.111,330.371Z" transform="translate(-793.775 -324.114)" fill="#3c354c"/>
      <path id="Trazado_4365" data-name="Trazado 4365" d="M662.935,259.64l1.323.282-.13.348-1.248-.366Z" transform="translate(-660.01 -254.839)" fill="#3c354c"/>
      <path id="Trazado_4366" data-name="Trazado 4366" d="M709.39,253.18l-1.22.588.21.307,1.125-.651Z" transform="translate(-699.091 -249.265)" fill="#3c354c"/>
      <path id="Trazado_4367" data-name="Trazado 4367" d="M687.31,260.361l.928-.111-.048.23-.8.053Z" transform="translate(-681.09 -255.366)" fill="#3c354c"/>
      <path id="Trazado_4368" data-name="Trazado 4368" d="M785.814,300.305a1.472,1.472,0,0,0,.137-.6,1.282,1.282,0,0,1,.063-.365,1.02,1.02,0,0,1,.3-.382,2.765,2.765,0,0,1,1.645-.574,3.8,3.8,0,0,1,1.9.411,1.481,1.481,0,0,1,.473.351c.192.234.233.537.426.769a1.12,1.12,0,0,0,1.05.329,5.473,5.473,0,0,0,.014-.735,3.549,3.549,0,0,1,.218-.609,1.5,1.5,0,0,0-.736-1.727,2.841,2.841,0,0,1-.655-.411,3.1,3.1,0,0,1-.322-.562,1.5,1.5,0,0,0-1.7-.492c-.189.071-.356.18-.548.256a4.52,4.52,0,0,1-1.154.222,3.534,3.534,0,0,0-1.119.293,1.253,1.253,0,0,0-.7.757c-.037.148-.029.3-.066.448-.189.744-1.411,1.106-1.479,1.866a1.089,1.089,0,0,0,.311.761c.129.152.437.559.655.618s.384-.148.592-.219C785.451,300.608,785.65,300.586,785.814,300.305Z" transform="translate(-781.395 -295.621)" fill="#cbceda"/>
    </g>
  </g>
</svg>
