<svg xmlns="http://www.w3.org/2000/svg" xmlns:xlink="http://www.w3.org/1999/xlink" width="125" height="87" viewBox="0 0 125 87">
  <defs>
    <linearGradient id="linear-gradient" x1="0.499" y1="1" x2="0.499" y2="-0.001" gradientUnits="objectBoundingBox">
      <stop offset="0" stop-color="gray" stop-opacity="0.251"/>
      <stop offset="0.54" stop-color="gray" stop-opacity="0.122"/>
      <stop offset="1" stop-color="gray" stop-opacity="0.102"/>
    </linearGradient>
    <linearGradient id="linear-gradient-2" x1="0.5" y1="1" x2="0.5" y2="0" xlink:href="#linear-gradient"/>
  </defs>
  <g id="Grupo_4043" data-name="Grupo 4043" transform="translate(0.066 0.009)">
    <path id="Trazado_3207" data-name="Trazado 3207" d="M165.881,107.767c-4.344,5.947-2.91,14.435-.4,21.2.841,2.264,1.8,4.658,1.36,7.121-.533,3.011-3.035,5.267-5.637,6.5a14.967,14.967,0,0,1-14.588-.94c-3.661-2.435-6.239-6.482-9.971-8.8-6.246-3.88-14.355-2.146-21.307.816-4.918,2.1-10.306,4.794-15.1,2.859-3.373-1.362-5.644-4.828-6.839-8.533-.577-1.789-.981-3.731-2.13-5.131a7.862,7.862,0,0,0-2.515-1.9c-8.475-4.428-19.377-1.66-27.593-6.6-5.547-3.336-9-9.811-10.435-16.618s-1.08-13.992-.508-21.055c.406-5.019,1.048-10.382,4.073-14.327a14.419,14.419,0,0,1,13.354-5.175c4.794.654,9.091,3.314,12.852,6.48,4.7,3.957,9.029,8.924,14.879,10.426,3.984,1.023,8.217.3,12.358-.021,6.923-.534,13.822.081,20.678.775,6.564.664,13.173,1.406,19.389,3.583,4.4,1.541,7.886,4.453,12.028,6.444,2.7,1.3,5.669,1.6,8.21,3.274,3.135,2.065,5.969,5.722,5.049,10.111C172.22,102.423,168.186,104.611,165.881,107.767Z" transform="translate(-48.331 -57.05)" fill="#6c63ff" opacity="0.1"/>
    <rect id="Rectángulo_2563" data-name="Rectángulo 2563" width="22.809" height="15.325" rx="7.662" transform="translate(42.168 17.572)" fill="#474059"/>
    <rect id="Rectángulo_2564" data-name="Rectángulo 2564" width="21.801" height="12.519" transform="translate(42.647 19.358)" fill="#fff"/>
    <ellipse id="Elipse_1257" data-name="Elipse 1257" cx="0.192" cy="0.208" rx="0.192" ry="0.208" transform="translate(53.355 18.515)" fill="#fff"/>
    <rect id="Rectángulo_2565" data-name="Rectángulo 2565" width="3.997" height="4.219" transform="translate(51.513 32.306)" fill="#474059"/>
    <path id="Trazado_3208" data-name="Trazado 3208" d="M456.506,326.95h4.885a.666.666,0,0,1,.666.666H455.84A.666.666,0,0,1,456.506,326.95Z" transform="translate(-405.326 -290.766)" fill="#474059"/>
    <rect id="Rectángulo_2566" data-name="Rectángulo 2566" width="16.43" height="5.662" transform="translate(25.772 39.719)" fill="#c0bccf"/>
    <rect id="Rectángulo_2567" data-name="Rectángulo 2567" width="3.552" height="30.862" transform="translate(92.785 36.902)" fill="#c0bccf"/>
    <rect id="Rectángulo_2568" data-name="Rectángulo 2568" width="16.43" height="0.333" transform="translate(25.772 39.727)" opacity="0.1"/>
    <rect id="Rectángulo_2569" data-name="Rectángulo 2569" width="3.552" height="3.108" transform="translate(92.785 36.956)" opacity="0.1"/>
    <rect id="Rectángulo_2570" data-name="Rectángulo 2570" width="16.43" height="5.662" transform="translate(25.772 45.142)" fill="#c0bccf"/>
    <circle id="Elipse_1258" data-name="Elipse 1258" cx="0.999" cy="0.999" r="0.999" transform="translate(32.986 46.919)" fill="#016db3"/>
    <circle id="Elipse_1259" data-name="Elipse 1259" cx="0.999" cy="0.999" r="0.999" transform="translate(32.986 41.496)" fill="#016db3"/>
    <rect id="Rectángulo_2571" data-name="Rectángulo 2571" width="16.43" height="5.662" transform="translate(25.772 50.787)" fill="#c0bccf"/>
    <circle id="Elipse_1260" data-name="Elipse 1260" cx="0.999" cy="0.999" r="0.999" transform="translate(32.986 52.454)" fill="#016db3"/>
    <rect id="Rectángulo_2572" data-name="Rectángulo 2572" width="16.43" height="5.662" transform="translate(25.772 56.431)" fill="#c0bccf"/>
    <circle id="Elipse_1261" data-name="Elipse 1261" cx="0.999" cy="0.999" r="0.999" transform="translate(32.986 58.099)" fill="#016db3"/>
    <rect id="Rectángulo_2573" data-name="Rectángulo 2573" width="16.43" height="5.662" transform="translate(25.772 62.076)" fill="#c0bccf"/>
    <circle id="Elipse_1262" data-name="Elipse 1262" cx="0.999" cy="0.999" r="0.999" transform="translate(32.986 63.744)" fill="#016db3"/>
    <rect id="Rectángulo_2574" data-name="Rectángulo 2574" width="16.43" height="0.444" transform="translate(25.772 50.464)" opacity="0.1"/>
    <rect id="Rectángulo_2575" data-name="Rectángulo 2575" width="16.43" height="0.444" transform="translate(25.772 44.929)" opacity="0.1"/>
    <rect id="Rectángulo_2576" data-name="Rectángulo 2576" width="16.43" height="0.444" transform="translate(25.772 56.11)" opacity="0.1"/>
    <rect id="Rectángulo_2577" data-name="Rectángulo 2577" width="16.43" height="0.444" transform="translate(25.772 61.755)" opacity="0.1"/>
    <path id="Trazado_3209" data-name="Trazado 3209" d="M100.648,380.663s-.366-10.853-6.238-16.985A16.451,16.451,0,0,1,89.9,354.3a27.671,27.671,0,0,1-.138-5.059" transform="translate(-83.876 -316.955)" fill="none" stroke="#535461" stroke-miterlimit="10" stroke-width="2"/>
    <path id="Trazado_3210" data-name="Trazado 3210" d="M56.144,289.907c.4,1.212,3.761,4,3.761,4s1.029-4.242.627-5.453a2.312,2.312,0,1,0-4.388,1.455Z" transform="translate(-53.937 -261.44)" fill="#016db3"/>
    <path id="Trazado_3211" data-name="Trazado 3211" d="M37.486,352.6c1,.8,5.329,1.312,5.329,1.312S41.372,349.8,40.373,349A2.312,2.312,0,1,0,37.48,352.6Z" transform="translate(-36.68 -316.242)" fill="#016db3"/>
    <path id="Trazado_3212" data-name="Trazado 3212" d="M64.362,451.572c1.263.187,5.263-1.554,5.263-1.554S66.3,447.186,65.038,447a2.312,2.312,0,1,0-.676,4.574Z" transform="translate(-59.593 -403.824)" fill="#016db3"/>
    <path id="Trazado_3213" data-name="Trazado 3213" d="M111.914,524.033c1.213.4,5.451-.646,5.451-.646s-2.8-3.349-4.012-3.747a2.312,2.312,0,0,0-1.443,4.393Z" transform="translate(-102.202 -468.345)" fill="#016db3"/>
    <path id="Trazado_3214" data-name="Trazado 3214" d="M99.079,358.664c-.589,1.132-4.348,3.35-4.348,3.35s-.342-4.351.248-5.484a2.311,2.311,0,0,1,4.1,2.134Z" transform="translate(-88.257 -322.287)" fill="#016db3"/>
    <path id="Trazado_3215" data-name="Trazado 3215" d="M144.451,438.7c-.9.9-5.151,1.9-5.151,1.9s.976-4.254,1.876-5.159a2.311,2.311,0,1,1,3.275,3.263Z" transform="translate(-127.966 -392.96)" fill="#016db3"/>
    <path id="Trazado_3216" data-name="Trazado 3216" d="M185.907,529.6c-.735,1.044-4.757,2.739-4.757,2.739s.242-4.357.978-5.4A2.311,2.311,0,1,1,185.9,529.6Z" transform="translate(-165.17 -474.018)" fill="#016db3"/>
    <path id="Trazado_3217" data-name="Trazado 3217" d="M176.67,454.188s3.33-4.845,2.747-9.4a8.908,8.908,0,0,1,1.052-5.535,14.987,14.987,0,0,1,1.566-2.25" transform="translate(-161.187 -394.978)" fill="none" stroke="#535461" stroke-miterlimit="10" stroke-width="2"/>
    <path id="Trazado_3218" data-name="Trazado 3218" d="M221.452,404.237a9.934,9.934,0,0,0,.352,2.951s1.813-1.516,2.027-2.173a1.251,1.251,0,0,0-2.379-.777Z" transform="translate(-200.955 -365.05)" fill="#6c63ff"/>
    <path id="Trazado_3219" data-name="Trazado 3219" d="M193.074,425.529a9.959,9.959,0,0,0,1.9,2.286,9.929,9.929,0,0,0,.521-2.926,1.252,1.252,0,1,0-2.42.641Z" transform="translate(-175.733 -383.354)" fill="#6c63ff"/>
    <path id="Trazado_3220" data-name="Trazado 3220" d="M172.911,477.27a9.924,9.924,0,0,0,2.793,1.015,9.894,9.894,0,0,0-1.028-2.789,1.252,1.252,0,1,0-1.765,1.776Z" transform="translate(-157.517 -428.864)" fill="#6c63ff"/>
    <path id="Trazado_3221" data-name="Trazado 3221" d="M170.337,524.172a9.94,9.94,0,0,0,2.582,1.472,9.9,9.9,0,0,0-.542-2.922,1.252,1.252,0,0,0-2.04,1.45Z" transform="translate(-155.352 -470.719)" fill="#6c63ff"/>
    <path id="Trazado_3222" data-name="Trazado 3222" d="M208.851,448.222a9.9,9.9,0,0,1-2.971.06,9.816,9.816,0,0,1,1.872-2.3,1.251,1.251,0,1,1,1.1,2.248Z" transform="translate(-187.155 -402.822)" fill="#6c63ff"/>
    <path id="Trazado_3223" data-name="Trazado 3223" d="M204.849,500.555a9.922,9.922,0,0,1-2.849-.827,9.921,9.921,0,0,1,2.477-1.643,1.251,1.251,0,1,1,.376,2.475Z" transform="translate(-183.705 -449.262)" fill="#6c63ff"/>
    <path id="Trazado_3224" data-name="Trazado 3224" d="M192.063,552.017a9.814,9.814,0,0,1-2.953-.333s1.508-1.82,2.164-2.038a1.252,1.252,0,0,1,.789,2.376Z" transform="translate(-172.246 -495.072)" fill="#6c63ff"/>
    <path id="Trazado_3225" data-name="Trazado 3225" d="M221.452,404.237a9.934,9.934,0,0,0,.352,2.951s1.813-1.516,2.027-2.173a1.251,1.251,0,0,0-2.379-.777Z" transform="translate(-200.955 -365.05)" fill="#0c9fff" opacity="0.5"/>
    <path id="Trazado_3226" data-name="Trazado 3226" d="M193.074,425.529a9.959,9.959,0,0,0,1.9,2.286,9.929,9.929,0,0,0,.521-2.926,1.252,1.252,0,1,0-2.42.641Z" transform="translate(-175.733 -383.354)" fill="#0c9fff" opacity="0.5"/>
    <path id="Trazado_3227" data-name="Trazado 3227" d="M172.911,477.27a9.924,9.924,0,0,0,2.793,1.015,9.894,9.894,0,0,0-1.028-2.789,1.252,1.252,0,1,0-1.765,1.776Z" transform="translate(-157.517 -428.864)" fill="#0c9fff" opacity="0.5"/>
    <path id="Trazado_3228" data-name="Trazado 3228" d="M170.337,524.172a9.94,9.94,0,0,0,2.582,1.472,9.9,9.9,0,0,0-.542-2.922,1.252,1.252,0,0,0-2.04,1.45Z" transform="translate(-155.352 -470.719)" fill="#0c9fff" opacity="0.5"/>
    <path id="Trazado_3229" data-name="Trazado 3229" d="M208.851,448.222a9.9,9.9,0,0,1-2.971.06,9.816,9.816,0,0,1,1.872-2.3,1.251,1.251,0,1,1,1.1,2.248Z" transform="translate(-187.155 -402.822)" fill="#0c9fff" opacity="0.5"/>
    <path id="Trazado_3230" data-name="Trazado 3230" d="M204.849,500.555a9.922,9.922,0,0,1-2.849-.827,9.921,9.921,0,0,1,2.477-1.643,1.251,1.251,0,1,1,.376,2.475Z" transform="translate(-183.705 -449.262)" fill="#0c9fff" opacity="0.5"/>
    <path id="Trazado_3231" data-name="Trazado 3231" d="M192.063,552.017a9.814,9.814,0,0,1-2.953-.333s1.508-1.82,2.164-2.038a1.252,1.252,0,0,1,.789,2.376Z" transform="translate(-172.246 -495.072)" fill="#0c9fff" opacity="0.5"/>
    <path id="Trazado_3232" data-name="Trazado 3232" d="M100.681,537.426H91.208L88.84,522.98h14.21Z" transform="translate(-79.036 -465.128)" fill="#474059"/>
    <path id="Trazado_3233" data-name="Trazado 3233" d="M118.953,522.98l-2.213,13.5H108.77l.155.947H118.4l2.369-14.446Z" transform="translate(-96.753 -465.128)" opacity="0.1"/>
    <rect id="Rectángulo_2578" data-name="Rectángulo 2578" width="71.383" height="3.33" transform="translate(25.421 36.513)" fill="#c0bccf"/>
    <rect id="Rectángulo_2579" data-name="Rectángulo 2579" width="10.213" height="10.794" transform="translate(43.191 20.223)" fill="#e8eaf1"/>
    <rect id="Rectángulo_2580" data-name="Rectángulo 2580" width="9.769" height="10.324" transform="translate(43.413 20.458)" fill="#fff"/>
    <path id="Trazado_3234" data-name="Trazado 3234" d="M440.184,251.348c.137-1.081-.137-1.149-.137-1.149l-.392-.188a1.615,1.615,0,0,0,.008-.191,1.364,1.364,0,0,0,0-.159,3.777,3.777,0,0,0-.472-1.187,3.56,3.56,0,0,1-.309-1.136,5.81,5.81,0,0,0-.167-1.443,2.6,2.6,0,0,0-.692-.949,3.5,3.5,0,0,0-1.11-.753,1.832,1.832,0,0,0-1.322-.038,2.89,2.89,0,0,0-.953.736,3.359,3.359,0,0,0-.538.655,2.96,2.96,0,0,0-.3.99,16.369,16.369,0,0,0-.187,1.655,1.667,1.667,0,0,1-.444,1.271c-.181.139-.434.216-.517.426a.466.466,0,0,0-.027.2.789.789,0,0,0,.011.168.5.5,0,0,0,.019.1,7.551,7.551,0,0,0-.266.865,22.8,22.8,0,0,0-.547,3.041h6.585a.776.776,0,0,0,.188,0h1.713Z" transform="translate(-388.059 -223.366)" fill="url(#linear-gradient)"/>
    <rect id="Rectángulo_2581" data-name="Rectángulo 2581" width="3.78" height="2.852" transform="translate(46.428 23.495)" fill="#b96b6b"/>
    <rect id="Rectángulo_2582" data-name="Rectángulo 2582" width="3.78" height="2.852" transform="translate(46.428 23.495)" opacity="0.1"/>
    <path id="Trazado_3235" data-name="Trazado 3235" d="M458.019,278.775l-1.459,2.056-1.531-.132s-1.989.132-.666-1.393a3.248,3.248,0,0,0,.888-1.776,1.38,1.38,0,0,0-.094-.74l1.659-.2a1.236,1.236,0,0,0-.027.692A3.052,3.052,0,0,0,458.019,278.775Z" transform="translate(-407.678 -252.299)" fill="#ffb9b9"/>
    <path id="Trazado_3236" data-name="Trazado 3236" d="M466.871,277.234a1.658,1.658,0,0,1-1.536.245,1.38,1.38,0,0,0-.094-.74l1.659-.2A1.237,1.237,0,0,0,466.871,277.234Z" transform="translate(-417.751 -252.252)" opacity="0.1"/>
    <circle id="Elipse_1263" data-name="Elipse 1263" cx="1.659" cy="1.659" r="1.659" transform="translate(46.46 21.94)" fill="#ffb9b9"/>
    <path id="Trazado_3237" data-name="Trazado 3237" d="M450.563,293.335a2.7,2.7,0,0,0,.6-1.327,1.341,1.341,0,0,1,.8-.666c.6-.2.531,0,.531,0l.4,1.592-.132,2.852.067.333H447.91l.333-1.327-.068-1.125.265-1.724.8-.464.6.8Z" transform="translate(-402.345 -265.341)" opacity="0.1"/>
    <path id="Trazado_3238" data-name="Trazado 3238" d="M450.563,293.945a2.7,2.7,0,0,0,.6-1.327,1.341,1.341,0,0,1,.8-.666c.6-.2.531,0,.531,0l.4,1.592-.132,2.852.067.333H447.91l.333-1.327-.067-1.128.265-1.724.8-.464.6.8Z" transform="translate(-402.345 -265.883)" fill="#fec5d9"/>
    <path id="Trazado_3239" data-name="Trazado 3239" d="M436.9,292.09l-2.056.333s-.333-.067-.729,1.525a22.641,22.641,0,0,0-.531,2.984h2.564s.154-2.653.555-2.852l.555-.858s-.888-.07-.757-.534A.94.94,0,0,1,436.9,292.09Z" transform="translate(-389.604 -266.084)" opacity="0.1"/>
    <path id="Trazado_3240" data-name="Trazado 3240" d="M436.314,292.09l-2.056.333s-.333-.067-.729,1.525a22.649,22.649,0,0,0-.528,2.983h2.564s.154-2.653.555-2.852l.555-.858s-.888-.07-.757-.534A.937.937,0,0,1,436.314,292.09Z" transform="translate(-389.089 -266.084)" fill="#747b9c"/>
    <path id="Trazado_3241" data-name="Trazado 3241" d="M484.36,290.3l2.188,1.061s.265.067.132,1.128l.132,2.852h-2.354a8.5,8.5,0,0,0,.1-2.719A18.173,18.173,0,0,1,484.36,290.3Z" transform="translate(-434.75 -264.492)" opacity="0.1"/>
    <path id="Trazado_3242" data-name="Trazado 3242" d="M485,290.3l2.188,1.061s.265.067.132,1.128l.132,2.852h-2.358a8.506,8.506,0,0,0,.1-2.719A18.176,18.176,0,0,1,485,290.3Z" transform="translate(-435.319 -264.492)" fill="#747b9c"/>
    <path id="Trazado_3243" data-name="Trazado 3243" d="M442.235,248a1.654,1.654,0,0,1-.366.713.9.9,0,0,0-.2.755c.033.1.1.189.122.292.04.178-.05.361-.034.542.021.249.232.433.349.653a1.583,1.583,0,0,1-.209,1.494,4.365,4.365,0,0,0-.7,1.4,2.827,2.827,0,0,0,.242,1.421.444.444,0,0,1,.038.285c-.051.153-.243.2-.405.21a4.276,4.276,0,0,1-.532,0,.444.444,0,0,1-.194-.041c-.122-.067-.159-.222-.2-.351s-.145-.275-.284-.261c-.091.01-.162.088-.252.1a.26.26,0,0,1-.222-.091.62.62,0,0,1-.017-.685,4.526,4.526,0,0,0,.347-.639c.179-.577-.269-1.149-.363-1.746a.564.564,0,0,1,.016-.293c.081-.206.326-.283.5-.419a1.644,1.644,0,0,0,.432-1.248,16.28,16.28,0,0,1,.173-1.624,2.934,2.934,0,0,1,.293-.971,3.287,3.287,0,0,1,.522-.643,2.77,2.77,0,0,1,.924-.722,1.754,1.754,0,0,1,1.281.037,3.391,3.391,0,0,1,1.078.745,2.546,2.546,0,0,1,.666.931,5.924,5.924,0,0,1,.161,1.421,3.53,3.53,0,0,0,.3,1.11,3.745,3.745,0,0,1,.457,1.166,3.939,3.939,0,0,1-.134.994,6.521,6.521,0,0,0,.019,1.74,1.4,1.4,0,0,0,.087.41,1.464,1.464,0,0,0,.4.474.17.17,0,0,1,.07.111.134.134,0,0,1-.052.1c-.2.179-.548.047-.766.205a1.232,1.232,0,0,0-.165.175.746.746,0,0,1-1.278-.346,2.39,2.39,0,0,1,.06-.79,4.743,4.743,0,0,0-.666-2.393,2.087,2.087,0,0,1-.246-1.136,3.585,3.585,0,0,1,.35-.875,2.464,2.464,0,0,0,.111-1.843,1.826,1.826,0,0,0-.939-1.022c-.158-.071-.382-.169-.547-.073C442.174,247.423,442.257,247.747,442.235,248Z" transform="translate(-394.661 -225.123)" opacity="0.1"/>
    <path id="Trazado_3244" data-name="Trazado 3244" d="M442.235,247.387a1.654,1.654,0,0,1-.366.713.9.9,0,0,0-.2.755c.033.1.1.189.122.292.04.178-.05.361-.034.542.021.249.232.433.349.653a1.583,1.583,0,0,1-.209,1.494,4.365,4.365,0,0,0-.7,1.4,2.827,2.827,0,0,0,.242,1.421.444.444,0,0,1,.038.285c-.051.153-.243.2-.405.21a4.27,4.27,0,0,1-.532,0,.444.444,0,0,1-.194-.041c-.122-.067-.159-.222-.2-.351s-.145-.275-.284-.261c-.091.01-.162.088-.252.1a.26.26,0,0,1-.222-.091.62.62,0,0,1-.017-.685,4.526,4.526,0,0,0,.347-.639c.179-.577-.269-1.149-.363-1.746a.564.564,0,0,1,.016-.293c.081-.206.326-.283.5-.419a1.644,1.644,0,0,0,.432-1.248,16.282,16.282,0,0,1,.18-1.625,2.935,2.935,0,0,1,.293-.971,3.287,3.287,0,0,1,.522-.643,2.769,2.769,0,0,1,.924-.722,1.754,1.754,0,0,1,1.281.037,3.391,3.391,0,0,1,1.076.738,2.547,2.547,0,0,1,.666.931,5.922,5.922,0,0,1,.161,1.421,3.53,3.53,0,0,0,.3,1.11,3.747,3.747,0,0,1,.457,1.166,3.937,3.937,0,0,1-.134.994,6.522,6.522,0,0,0,.019,1.74,1.4,1.4,0,0,0,.084.412,1.464,1.464,0,0,0,.4.474.17.17,0,0,1,.07.111.134.134,0,0,1-.052.1c-.2.179-.548.047-.766.205a1.231,1.231,0,0,0-.165.175.746.746,0,0,1-1.278-.346,2.389,2.389,0,0,1,.06-.79,4.743,4.743,0,0,0-.666-2.393,2.087,2.087,0,0,1-.246-1.136,3.585,3.585,0,0,1,.35-.875,2.464,2.464,0,0,0,.111-1.843,1.826,1.826,0,0,0-.939-1.022c-.158-.071-.382-.169-.547-.073C442.174,246.814,442.257,247.139,442.235,247.387Z" transform="translate(-394.661 -224.58)" fill="#b96b6b"/>
    <rect id="Rectángulo_2583" data-name="Rectángulo 2583" width="7.993" height="0.333" transform="translate(55.506 20.908)" fill="#e8eaf1"/>
    <rect id="Rectángulo_2584" data-name="Rectángulo 2584" width="7.993" height="0.333" transform="translate(55.506 21.794)" fill="#e8eaf1"/>
    <rect id="Rectángulo_2585" data-name="Rectángulo 2585" width="7.993" height="0.333" transform="translate(55.506 22.679)" fill="#e8eaf1"/>
    <rect id="Rectángulo_2586" data-name="Rectángulo 2586" width="7.993" height="0.333" transform="translate(55.506 23.565)" fill="#e8eaf1"/>
    <rect id="Rectángulo_2587" data-name="Rectángulo 2587" width="7.993" height="0.333" transform="translate(55.506 24.451)" fill="#e8eaf1"/>
    <rect id="Rectángulo_2588" data-name="Rectángulo 2588" width="7.993" height="0.333" transform="translate(55.506 25.336)" fill="#e8eaf1"/>
    <rect id="Rectángulo_2589" data-name="Rectángulo 2589" width="7.993" height="0.333" transform="translate(55.506 26.222)" fill="#e8eaf1"/>
    <rect id="Rectángulo_2590" data-name="Rectángulo 2590" width="7.993" height="0.333" transform="translate(55.506 27.107)" fill="#e8eaf1"/>
    <rect id="Rectángulo_2591" data-name="Rectángulo 2591" width="7.993" height="0.333" transform="translate(55.506 27.993)" fill="#e8eaf1"/>
    <rect id="Rectángulo_2592" data-name="Rectángulo 2592" width="7.993" height="0.333" transform="translate(55.506 28.878)" fill="#e8eaf1"/>
    <rect id="Rectángulo_2593" data-name="Rectángulo 2593" width="7.993" height="0.333" transform="translate(55.506 29.764)" fill="#e8eaf1"/>
    <path id="Trazado_3245" data-name="Trazado 3245" d="M542.124,206.428a8.04,8.04,0,0,0,.473-4.846,41.192,41.192,0,0,1-.792-5.888,13.851,13.851,0,0,0-.707-3.921h0a5.108,5.108,0,0,0-1.639-3.926,55.952,55.952,0,0,0-5.852-3.477l.41-1.666H534a1.61,1.61,0,0,0,.352-.16,1.524,1.524,0,0,0,.316-.262c.693-.6.7-1.712,1.031-2.594a17.138,17.138,0,0,1,1.067-1.9,4.273,4.273,0,0,0,.188-3.8,3.387,3.387,0,0,0-3.3-1.9,5.945,5.945,0,0,0-1.283.344c-.985.345-1.762-.631-2.746-.285-.494.174-2.338.362-2.738.867a.453.453,0,0,0-.189.254c-.1.491.8,1.474,1.468,2.259a3.589,3.589,0,0,0-.824,2.284v.113a3.613,3.613,0,0,0,1.1,2.591c-.057.493-.141,1.048-.262,1.616h-.081s-.468,2.019-1.989,2.019c-.406,0-.961-.024-1.554-.059a16.314,16.314,0,0,0-5.31.609,2.047,2.047,0,0,1-1.792-.213,14.257,14.257,0,0,1-2.9-3.662c.147-.97.127-2.745-1.9-3.068-2.37-.378-2.24,2.357-.877,4.1a1.08,1.08,0,0,0-.067.27,9.208,9.208,0,0,0,1.639,4.487c.351.336.36,2.467,2.813,3.032s4.219.785,4.33,3.59,2.458,5.721,1.288,8.975c-.7,1.953-.52,2.975-.261,3.481-.021.066-.041.132-.063.2a7.922,7.922,0,0,1-.964,2.1c-.084.111-.167.23-.245.354a15.231,15.231,0,0,0-2.331,1.721c-.819.9-.468,4.487,0,5.945s3.394,10.32,3.394,10.32h.111l.036.221.118.734a1.1,1.1,0,0,1-.111-.069.19.19,0,0,0-.281.075l-.572,1.271s-2.34-1.007-2.46,1.349v.27a1.736,1.736,0,0,0,1.281,1.887,4.906,4.906,0,0,1,1.525.705,2.988,2.988,0,0,0,2.395.59,2.378,2.378,0,0,1,.6-.055.955.955,0,0,0,1.11-1.046,1.807,1.807,0,0,0,0-.221,18.036,18.036,0,0,1-.515-2.764.644.644,0,0,1,.047-.259,1.844,1.844,0,0,0,.1-.782,8.181,8.181,0,0,0-.043-.843.131.131,0,0,0-.239-.055l-.019.025c-.076-.249-.163-.54-.245-.814l-.068-.221h.158s-.938-5.507-.587-5.95c.23-.293-.141-3.8-.425-6.192,2.851.18,7.395-.322,10.5-.477a3.991,3.991,0,0,0,1.7-.471c-.281,2.269-.8,6.8-.541,7.138.351.449-.585,5.945-.585,5.945h.141l-.051.168h.018c-.087.291-.181.6-.262.87l-.019-.025a.131.131,0,0,0-.239.056,8.156,8.156,0,0,0-.043.841,2,2,0,0,0,.1.782.643.643,0,0,1,.047.259,17.893,17.893,0,0,1-.515,2.764,1.831,1.831,0,0,0,0,.221.951.951,0,0,0,1.11,1.046,2.376,2.376,0,0,1,.6.055,3,3,0,0,0,2.395-.59,4.907,4.907,0,0,1,1.525-.705,1.736,1.736,0,0,0,1.281-1.887v-.27c-.123-2.354-2.463-1.347-2.463-1.347l-.575-1.276a.19.19,0,0,0-.281-.075,1.109,1.109,0,0,1-.111.069l.154-.959h.111s2.925-8.862,3.394-10.32.819-5.048,0-5.945a15.335,15.335,0,0,0-2.364-1.744,21.955,21.955,0,0,1,2.364,1.632Zm-5.053,1.124-.372-.221a1.76,1.76,0,0,0-.281-.364,2.948,2.948,0,0,1-.286-.321c-.229-.689-1.074-3.538.053-5.008.818-1.07.88-3.138.816-4.5.555,2.71,1.332,6.523,1.408,7.306C538.5,205.421,537.494,206.959,537.07,207.553Z" transform="translate(-458.277 -159.308)" fill="url(#linear-gradient-2)"/>
    <path id="Trazado_3246" data-name="Trazado 3246" d="M719.108,653.92l-.444,2.886L716,656.251s.555-1.887.666-2.331.111,0,.111,0Z" transform="translate(-640.691 -587.687)" fill="#d6e6f9"/>
    <path id="Trazado_3247" data-name="Trazado 3247" d="M611.108,656.251l-2.664.555-.307-2L608,653.92h2.331s0-.444.111,0c.04.16.138.508.248.888C610.886,655.48,611.108,656.251,611.108,656.251Z" transform="translate(-544.673 -587.687)" fill="#d6e6f9"/>
    <path id="Trazado_3248" data-name="Trazado 3248" d="M610.71,654.808h-2.553l-.137-.888h2.331s0-.444.111,0C610.5,654.079,610.6,654.428,610.71,654.808Z" transform="translate(-544.691 -587.682)" opacity="0.1"/>
    <path id="Trazado_3249" data-name="Trazado 3249" d="M719.79,654.308h2.553l.137-.888h-2.333s0-.444-.111,0C720,653.579,719.9,653.928,719.79,654.308Z" transform="translate(-644.06 -587.237)" opacity="0.1"/>
    <path id="Trazado_3250" data-name="Trazado 3250" d="M740.33,340.5s1.443.111,1.776,5.329a42.423,42.423,0,0,0,.756,5.828,8.275,8.275,0,0,1-.444,4.791L741,359.928s-2.664-2.22-3.552-2.109c0,0,1.554-2.109,1.443-3.33S737,344.5,737,344.5Z" transform="translate(-659.362 -309.156)" fill="#d6e6f9"/>
    <path id="Trazado_3251" data-name="Trazado 3251" d="M579.486,489.5a31.747,31.747,0,0,0-4.219,3c-.777.888-.444,4.441,0,5.884s3.219,10.213,3.219,10.213h2.775s-.888-5.44-.555-5.884-.666-8.326-.666-8.326Z" transform="translate(-515.158 -441.675)" fill="#5f546f"/>
    <path id="Trazado_3252" data-name="Trazado 3252" d="M720.776,489.5a31.747,31.747,0,0,1,4.219,3c.777.888.444,4.441,0,5.884s-3.219,10.213-3.219,10.213H719s.888-5.44.555-5.884.666-8.326.666-8.326Z" transform="translate(-643.359 -441.675)" fill="#5f546f"/>
    <path id="Trazado_3253" data-name="Trazado 3253" d="M579.486,489.5a31.747,31.747,0,0,0-4.219,3c-.777.888-.444,4.441,0,5.884s3.219,10.213,3.219,10.213h2.775s-.888-5.44-.555-5.884-.666-8.326-.666-8.326Z" transform="translate(-515.158 -441.675)" opacity="0.1"/>
    <path id="Trazado_3254" data-name="Trazado 3254" d="M720.776,489.5a31.747,31.747,0,0,1,4.219,3c.777.888.444,4.441,0,5.884s-3.219,10.213-3.219,10.213H719s.888-5.44.555-5.884.666-8.326.666-8.326Z" transform="translate(-643.359 -441.675)" opacity="0.1"/>
    <path id="Trazado_3255" data-name="Trazado 3255" d="M656.059,230.178s0,4.33-1.554,6.55,7.1.333,7.1.333a2.306,2.306,0,0,1-.833-1.166c-.457-1.629-.631-4.5.055-5.717C661.832,228.4,656.059,230.178,656.059,230.178Z" transform="translate(-585.854 -210.325)" fill="#ffced8"/>
    <circle id="Elipse_1264" data-name="Elipse 1264" cx="3.663" cy="3.663" r="3.663" transform="translate(69.041 15.48)" opacity="0.1"/>
    <circle id="Elipse_1265" data-name="Elipse 1265" cx="3.663" cy="3.663" r="3.663" transform="translate(69.041 15.37)" fill="#ffced8"/>
    <path id="Trazado_3256" data-name="Trazado 3256" d="M615.118,504.177c-3.971.175-10.576.915-11.578-.182a3.007,3.007,0,0,1-.209-4.33,5.9,5.9,0,0,0,.857-1.654c.08-.215.154-.43.222-.634a2.13,2.13,0,0,1,2.076-1.338h8.019a2.13,2.13,0,0,1,2.078,1.347,3.563,3.563,0,0,0,.511,1.038,2.511,2.511,0,0,0,.41.444,3.566,3.566,0,0,1,.836,1.9C618.7,502.488,617.18,504.086,615.118,504.177Z" transform="translate(-539.799 -447.468)" fill="#5f546f"/>
    <path id="Trazado_3257" data-name="Trazado 3257" d="M615.118,504.177c-3.971.175-10.576.915-11.578-.182a3.007,3.007,0,0,1-.209-4.33,5.9,5.9,0,0,0,.857-1.654c.08-.215.154-.43.222-.634a2.13,2.13,0,0,1,2.076-1.338h8.019a2.13,2.13,0,0,1,2.078,1.347,3.563,3.563,0,0,0,.511,1.038,2.511,2.511,0,0,0,.41.444,3.566,3.566,0,0,1,.836,1.9C618.7,502.488,617.18,504.086,615.118,504.177Z" transform="translate(-539.799 -447.468)" opacity="0.1"/>
    <path id="Trazado_3258" data-name="Trazado 3258" d="M585.715,669.688a5.174,5.174,0,0,1-1.606-.537.176.176,0,0,0-.266.074l-.544,1.267s-2.22-1-2.331,1.332a1.751,1.751,0,0,0,1.213,2.024,4.566,4.566,0,0,1,1.451.7,2.757,2.757,0,0,0,2.271.585,2.167,2.167,0,0,1,.57-.055c.414.013,1.128-.111,1.049-1.142,0,0-.666-2.664-.444-3.108a3.848,3.848,0,0,0,.058-1.494.123.123,0,0,0-.222-.057.977.977,0,0,1-.856.444A1.552,1.552,0,0,1,585.715,669.688Z" transform="translate(-520.636 -601.384)" opacity="0.1"/>
    <path id="Trazado_3259" data-name="Trazado 3259" d="M585.715,670.687a5.173,5.173,0,0,1-1.606-.537.177.177,0,0,0-.266.074l-.544,1.267s-2.22-1-2.331,1.332a1.751,1.751,0,0,0,1.213,2.024,4.565,4.565,0,0,1,1.451.7,2.757,2.757,0,0,0,2.271.585,2.167,2.167,0,0,1,.57-.055c.414.013,1.128-.111,1.049-1.142,0,0-.666-2.664-.444-3.108a3.848,3.848,0,0,0,.058-1.494.123.123,0,0,0-.222-.057.977.977,0,0,1-.856.444A1.56,1.56,0,0,1,585.715,670.687Z" transform="translate(-520.636 -602.273)" fill="#bc8387"/>
    <path id="Trazado_3260" data-name="Trazado 3260" d="M713.784,669.688a5.174,5.174,0,0,0,1.606-.537.176.176,0,0,1,.266.074l.541,1.267s2.22-1,2.331,1.332a1.751,1.751,0,0,1-1.213,2.024,4.566,4.566,0,0,0-1.443.7,2.757,2.757,0,0,1-2.271.585,2.164,2.164,0,0,0-.57-.056c-.414.013-1.128-.111-1.049-1.142,0,0,.666-2.664.444-3.108a3.845,3.845,0,0,1-.058-1.494.123.123,0,0,1,.222-.057.977.977,0,0,0,.856.444A1.558,1.558,0,0,0,713.784,669.688Z" transform="translate(-637.115 -601.384)" opacity="0.1"/>
    <path id="Trazado_3261" data-name="Trazado 3261" d="M713.784,670.687a5.173,5.173,0,0,0,1.606-.537.177.177,0,0,1,.266.074l.541,1.267s2.22-1,2.331,1.332a1.751,1.751,0,0,1-1.213,2.024,4.566,4.566,0,0,0-1.443.7,2.757,2.757,0,0,1-2.271.585,2.164,2.164,0,0,0-.57-.056c-.414.013-1.128-.111-1.049-1.142,0,0,.666-2.664.444-3.108a3.846,3.846,0,0,1-.058-1.494.123.123,0,0,1,.222-.057.977.977,0,0,0,.856.444A1.554,1.554,0,0,0,713.784,670.687Z" transform="translate(-637.115 -602.273)" fill="#bc8387"/>
    <path id="Trazado_3262" data-name="Trazado 3262" d="M521.593,231.882s1-3.219-1.665-3.663-2,3.441,0,4.885S521.593,231.882,521.593,231.882Z" transform="translate(-464.81 -209.251)" fill="#ffced8"/>
    <path id="Trazado_3263" data-name="Trazado 3263" d="M623.192,460.719c-3.108,5.107-13.544-.666-13.544-.666a1.112,1.112,0,0,1-.419-.577c.086-.27.164-.54.235-.8a2.291,2.291,0,0,1,2.214-1.68h8.548a2.288,2.288,0,0,1,2.214,1.691,4.844,4.844,0,0,0,.544,1.3C623.095,460.441,623.192,460.719,623.192,460.719Z" transform="translate(-545.771 -412.743)" opacity="0.1"/>
    <path id="Trazado_3264" data-name="Trazado 3264" d="M542.156,256.816h-.666s-.444,2-1.887,2c-.385,0-.911-.023-1.478-.059a14.867,14.867,0,0,0-5.038.6,1.872,1.872,0,0,1-1.7-.211,14.407,14.407,0,0,1-2.775-3.664s-2.553-.111-2.664,1.332a9.348,9.348,0,0,0,1.554,4.441c.333.333.333,2.442,2.664,3s4,.777,4.108,3.552,2.331,5.662,1.221,8.881.111,3.886.111,3.886,10.435,5.773,13.544.666c0,0-1.221-3.441,0-5.107s.666-5.773.666-5.773l4-4a5.183,5.183,0,0,0-1.554-3.886,52.567,52.567,0,0,0-5.551-3.441l.389-1.65Z" transform="translate(-471.727 -233.554)" fill="#d6e6f9"/>
    <path id="Trazado_3265" data-name="Trazado 3265" d="M656.037,185.526a3.531,3.531,0,0,0,.722,2.946,3.086,3.086,0,0,0,1.387.644,8.859,8.859,0,0,0,1.6.236,2.417,2.417,0,0,0,1.432-.263c.848-.547.828-1.764,1.168-2.715a17.491,17.491,0,0,1,1.013-1.887,4.389,4.389,0,0,0,.178-3.762,3.186,3.186,0,0,0-3.127-1.871,5.454,5.454,0,0,0-1.221.341c-.935.342-1.671-.625-2.606-.283-.511.187-2.54.392-2.664,1-.148.722,1.816,2.521,2.028,3.153A7.3,7.3,0,0,1,656.037,185.526Z" transform="translate(-585.491 -165.368)" opacity="0.1"/>
    <path id="Trazado_3266" data-name="Trazado 3266" d="M657.037,184.526a3.531,3.531,0,0,0,.722,2.946,3.086,3.086,0,0,0,1.387.644,8.858,8.858,0,0,0,1.6.236,2.418,2.418,0,0,0,1.432-.263c.848-.547.828-1.764,1.168-2.715a17.467,17.467,0,0,1,1.012-1.887,4.389,4.389,0,0,0,.178-3.762,3.186,3.186,0,0,0-3.127-1.871,5.453,5.453,0,0,0-1.221.341c-.935.342-1.671-.625-2.606-.283-.511.186-2.54.392-2.664,1-.148.722,1.816,2.521,2.028,3.153A7.3,7.3,0,0,1,657.037,184.526Z" transform="translate(-586.38 -164.479)" fill="#ae767a"/>
    <path id="Trazado_3267" data-name="Trazado 3267" d="M659.52,280.49s.666.279,2.553.834a5.606,5.606,0,0,0,3.33,0" transform="translate(-590.478 -255.764)" opacity="0.1"/>
    <path id="Trazado_3268" data-name="Trazado 3268" d="M614.5,423.4s3.108.178,4.108,1.51,1.332,1.776,2.553,1.776a39.081,39.081,0,0,1,5.662.444" transform="translate(-550.455 -382.859)" opacity="0.1"/>
    <rect id="Rectángulo_2594" data-name="Rectángulo 2594" width="1.856" height="2.121" transform="translate(70.557 74.055)" fill="#c0bccf"/>
    <rect id="Rectángulo_2595" data-name="Rectángulo 2595" width="1.459" height="10.74" transform="translate(82.217 48.028)" fill="#cb919b"/>
    <rect id="Rectángulo_2596" data-name="Rectángulo 2596" width="3.182" height="0.397" transform="translate(79.831 58.623)" fill="#cb919b"/>
    <rect id="Rectángulo_2597" data-name="Rectángulo 2597" width="1.459" height="10.74" transform="translate(59.425 48.028)" fill="#cb919b"/>
    <rect id="Rectángulo_2598" data-name="Rectángulo 2598" width="3.182" height="0.397" transform="translate(59.69 58.623)" fill="#cb919b"/>
    <rect id="Rectángulo_2599" data-name="Rectángulo 2599" width="3.05" height="12.994" transform="translate(70.158 59.256)" fill="#c0bccf"/>
    <path id="Trazado_3269" data-name="Trazado 3269" d="M615.956,364.286c8.215.286,8.486-2.861,8.486-2.861l-.531-8.727c-.132-13.592-7.955-11.589-7.955-11.589s-7.823-2-7.955,11.589l-.531,8.727S607.735,364.572,615.956,364.286Z" transform="translate(-544.207 -309.613)" fill="#cb919b"/>
    <path id="Trazado_3270" data-name="Trazado 3270" d="M615.956,364.286c8.215.286,8.486-2.861,8.486-2.861l-.531-8.727c-.132-13.592-7.955-11.589-7.955-11.589s-7.823-2-7.955,11.589l-.531,8.727S607.735,364.572,615.956,364.286Z" transform="translate(-544.207 -309.613)" fill="#fff" opacity="0.1"/>
    <path id="Trazado_3271" data-name="Trazado 3271" d="M617.147,368.108c7.835.273,8.087-2.728,8.087-2.728l-.505-8.318c-.127-12.954-7.582-11.045-7.582-11.045s-7.456-1.909-7.582,11.045l-.505,8.318S609.312,368.381,617.147,368.108Z" transform="translate(-545.62 -313.98)" fill="#cb919b"/>
    <rect id="Rectángulo_2600" data-name="Rectángulo 2600" width="3.315" height="5.702" rx="1.657" transform="translate(69.894 50.549)" fill="#c0bccf"/>
    <path id="Trazado_3272" data-name="Trazado 3272" d="M672.615,705.027v.463H669.57v-.46l.265-.07h2.519Z" transform="translate(-599.412 -633.289)" opacity="0.1"/>
    <path id="Trazado_3273" data-name="Trazado 3273" d="M571.313,710.515s-1.327-1.06,11.141-4.375h2.519s10.736,2.649,10.868,4.375h-1.591s-5.834-1.726-8.486-1.726-10.607.265-12.989,1.724Z" transform="translate(-512.028 -634.338)" fill="#c0bccf"/>
    <path id="Trazado_3274" data-name="Trazado 3274" d="M528.043,419.77h.561a1.443,1.443,0,0,1,1.443,1.443v.678H526.6v-.678A1.443,1.443,0,0,1,528.043,419.77Z" transform="translate(-468.235 -373.313)" fill="#cb919b"/>
    <path id="Trazado_3275" data-name="Trazado 3275" d="M733.443,419.77H734a1.443,1.443,0,0,1,1.443,1.443v.678H732v-.678A1.443,1.443,0,0,1,733.443,419.77Z" transform="translate(-650.846 -373.313)" fill="#cb919b"/>
    <circle id="Elipse_1266" data-name="Elipse 1266" cx="0.928" cy="0.928" r="0.928" transform="translate(59.028 76.177)" fill="#5a5773"/>
    <circle id="Elipse_1267" data-name="Elipse 1267" cx="0.928" cy="0.928" r="0.928" transform="translate(70.557 76.177)" fill="#5a5773"/>
    <circle id="Elipse_1268" data-name="Elipse 1268" cx="0.928" cy="0.928" r="0.928" transform="translate(82.217 76.177)" fill="#5a5773"/>
    <rect id="Rectángulo_2601" data-name="Rectángulo 2601" width="3.05" height="0.531" transform="translate(70.158 59.284)" opacity="0.1"/>
    <path id="Trazado_3276" data-name="Trazado 3276" d="M606.914,565.342H615.8l.666-1.326c.4-2.254-1.06-2.387-1.06-2.387H598.428s-1.459.132-1.06,2.387l.666,1.326Z" transform="translate(-535.165 -505.789)" fill="#cb919b"/>
    <path id="Trazado_3277" data-name="Trazado 3277" d="M606.914,565.342H615.8l.666-1.326c.4-2.254-1.06-2.387-1.06-2.387H598.428s-1.459.132-1.06,2.387l.666,1.326Z" transform="translate(-535.165 -505.789)" fill="#fff" opacity="0.1"/>
    <path id="Trazado_3278" data-name="Trazado 3278" d="M606.914,569.583H615.8l.666-1.137c.4-1.932-1.06-2.046-1.06-2.046H598.428s-1.459.111-1.06,2.046l.666,1.137Z" transform="translate(-535.165 -510.03)" fill="#cb919b"/>
    <path id="Trazado_3279" data-name="Trazado 3279" d="M831.453,356.64a1.263,1.263,0,0,0-1.5.555,1.63,1.63,0,0,0,.021,1.569,2.3,2.3,0,0,0,2.231,1.264,1.6,1.6,0,0,0,1.51-1.62,1.665,1.665,0,0,0-2.209-1.776Z" transform="translate(-741.832 -323.395)" fill="#016db3"/>
    <path id="Trazado_3280" data-name="Trazado 3280" d="M830.208,358.473a1.63,1.63,0,0,1-.021-1.569,1.277,1.277,0,0,1,1.5-.555l.052-.019a1.649,1.649,0,0,1,1.191.027,1.65,1.65,0,0,0-1.405-.134l-.052.019a1.263,1.263,0,0,0-1.5.555,1.63,1.63,0,0,0,.021,1.569,2.436,2.436,0,0,0,1.145,1.085A2.512,2.512,0,0,1,830.208,358.473Z" transform="translate(-741.849 -323.029)" fill="#fff" opacity="0.1"/>
    <path id="Trazado_3281" data-name="Trazado 3281" d="M840.3,361.34s.375.3,1.289,0" transform="translate(-751.2 -327.664)" opacity="0.2"/>
    <path id="Trazado_3282" data-name="Trazado 3282" d="M839.58,342a10.04,10.04,0,0,1,.591,2.2l.51-.053s-.859-1.53-.644-2.147Z" transform="translate(-750.559 -310.467)" fill="#6c63ff"/>
    <path id="Trazado_3283" data-name="Trazado 3283" d="M839.58,342a10.04,10.04,0,0,1,.591,2.2l.51-.053s-.859-1.53-.644-2.147Z" transform="translate(-750.559 -310.467)" opacity="0.2"/>
    <path id="Trazado_3284" data-name="Trazado 3284" d="M847.32,341.231s-1.014-.518-1.468-.09a2.842,2.842,0,0,0-.523,1.523A1.769,1.769,0,0,0,847.32,341.231Z" transform="translate(-755.672 -309.552)" fill="#6c63ff"/>
    <path id="Trazado_3285" data-name="Trazado 3285" d="M847.32,341.231s-1.014-.518-1.468-.09a2.842,2.842,0,0,0-.523,1.523,2.588,2.588,0,0,0,1.231-.261A1.517,1.517,0,0,0,847.32,341.231Z" transform="translate(-755.672 -309.552)" fill="#fff" opacity="0.1"/>
    <path id="Trazado_3286" data-name="Trazado 3286" d="M845.33,344.743a2.054,2.054,0,0,1,1.99-1.433" transform="translate(-755.672 -311.631)" fill="none" stroke="#0c9fff" stroke-miterlimit="10" stroke-width="1"/>
  </g>
</svg>
