<svg xmlns="http://www.w3.org/2000/svg" width="307" height="233" viewBox="0 0 307 233">
  <g id="Icon" transform="translate(-414.01 -1348.824)">
    <path id="Shape_505" data-name="Shape 505" d="M593.072,1453.7s-52.174-21.957-52.053,27.974c.1,39.95.033,63.99-30.38,64.333s-52.414,70.518,19.494,72.615,99.956-58.173,121.487-3.306,100.727,40.511,93.645-14.235,4.672-58.708,29.35-80.274c48.31-42.217-35.346-149.711-97.8-81.937S615.786,1468.729,593.072,1453.7Z" transform="translate(-68 -68.167)" fill="rgba(134,212,240,0.3)"/>
    <g id="Grupo_3028" data-name="Grupo 3028" transform="translate(443.01 1368.824)">
      <path id="Trazado_2852" data-name="Trazado 2852" d="M182.945,64.911,143.128,86.478a10.129,10.129,0,1,1-17.8,9.644l-13.576,7.354L146.914,168.4l71.2-38.564Z" transform="translate(-109.902 -64.911)" fill="#f2f2f2"/>
      <circle id="Elipse_34" data-name="Elipse 34" cx="8.22" cy="8.22" r="8.22" transform="translate(15.643 18.434)" fill="#016db3"/>
      <path id="Trazado_2853" data-name="Trazado 2853" d="M722.5,471.437l43.05-14.042a10.129,10.129,0,1,1,19.25-6.279l14.679-4.788-22.9-70.2-76.979,25.11Z" transform="translate(-549.484 -298.897)" fill="#f2f2f2"/>
      <circle id="Elipse_35" data-name="Elipse 35" cx="8.22" cy="8.22" r="8.22" transform="translate(217.978 147.172)" fill="#016db3"/>
      <rect id="Rectángulo_1" data-name="Rectángulo 1" width="198.761" height="90.301" transform="translate(29.133 38.042)" fill="#3f3d56"/>
      <rect id="Rectángulo_2" data-name="Rectángulo 2" width="192.203" height="81.977" transform="translate(32.412 41.318)" fill="#fff"/>
      <rect id="Rectángulo_3" data-name="Rectángulo 3" width="18.666" height="6.306" transform="translate(186.402 119.049)" fill="#3f3d56"/>
      <rect id="Rectángulo_4" data-name="Rectángulo 4" width="13.621" height="1.766" transform="translate(171.772 123.829)" fill="#0c9fff"/>
      <path id="Trazado_2854" data-name="Trazado 2854" d="M190.5,265.5h73.4l11.38,5.544,18.132,8.834,11.855-22.2h33.547" transform="translate(-142.45 -193.161)" fill="none" stroke="#3f3d56" stroke-miterlimit="10" stroke-width="2"/>
      <path id="Trazado_2855" data-name="Trazado 2855" d="M304.925,288.678l5.442,12.864h13.369" transform="translate(-228.012 -216.371)" fill="none" stroke="#3f3d56" stroke-miterlimit="10" stroke-width="2"/>
      <path id="Trazado_2856" data-name="Trazado 2856" d="M385.807,258.767,404.4,248.678h13.116" transform="translate(-288.493 -186.384)" fill="none" stroke="#3f3d56" stroke-miterlimit="10" stroke-width="2"/>
      <circle id="Elipse_36" data-name="Elipse 36" cx="2.27" cy="2.27" r="2.27" transform="translate(74.535 70.074)" fill="#0c9fff"/>
      <circle id="Elipse_37" data-name="Elipse 37" cx="2.27" cy="2.27" r="2.27" transform="translate(95.723 70.074)" fill="#0c9fff"/>
      <path id="Trazado_2857" data-name="Trazado 2857" d="M526.5,310.678l1.513,22.449H541.13" transform="translate(-393.698 -232.891)" fill="none" stroke="#3f3d56" stroke-miterlimit="10" stroke-width="2"/>
      <path id="Trazado_2858" data-name="Trazado 2858" d="M583.915,259.85,569.5,248.678h13.621" transform="translate(-425.852 -186.386)" fill="none" stroke="#3f3d56" stroke-miterlimit="10" stroke-width="2"/>
      <path id="Trazado_2859" data-name="Trazado 2859" d="M721.051,257.678l13.986,11.1h13.116" transform="translate(-539.177 -193.132)" fill="none" stroke="#3f3d56" stroke-miterlimit="10" stroke-width="2"/>
      <circle id="Elipse_38" data-name="Elipse 38" cx="2.27" cy="2.27" r="2.27" transform="translate(130.532 75.586)" fill="#0c9fff"/>
      <circle id="Elipse_39" data-name="Elipse 39" cx="2.27" cy="2.27" r="2.27" transform="translate(179.465 62.307)" fill="#0c9fff"/>
      <circle id="Elipse_40" data-name="Elipse 40" cx="2.27" cy="2.27" r="2.27" transform="translate(155.755 71.076)" fill="#0c9fff"/>
      <line id="Línea_1" data-name="Línea 1" x2="13.116" transform="translate(82.607 87.125)" fill="none" stroke="#3f3d56" stroke-miterlimit="10" stroke-width="2"/>
      <path id="Trazado_2860" data-name="Trazado 2860" d="M615.93,322.589Z" transform="translate(-486.912 -258.017)" fill="none" stroke="#3f3d56" stroke-miterlimit="10" stroke-width="2"/>
      <path id="Trazado_2861" data-name="Trazado 2861" d="M727.93,321.589Z" transform="translate(-570.661 -257.268)" fill="none" stroke="#3f3d56" stroke-miterlimit="10" stroke-width="2"/>
      <path id="Trazado_2862" data-name="Trazado 2862" d="M727.93,329.589Z" transform="translate(-570.661 -263.263)" fill="none" stroke="#3f3d56" stroke-miterlimit="10" stroke-width="2"/>
      <path id="Trazado_2863" data-name="Trazado 2863" d="M932.93,374.589Z" transform="translate(-723.954 -296.986)" fill="none" stroke="#3f3d56" stroke-miterlimit="10" stroke-width="2"/>
      <path id="Trazado_2864" data-name="Trazado 2864" d="M913.93,382.589Z" transform="translate(-709.746 -302.982)" fill="none" stroke="#3f3d56" stroke-miterlimit="10" stroke-width="2"/>
      <path id="Trazado_2865" data-name="Trazado 2865" d="M688.93,472.589Z" transform="translate(-541.499 -370.428)" fill="none" stroke="#3f3d56" stroke-miterlimit="10" stroke-width="2"/>
      <circle id="Elipse_41" data-name="Elipse 41" cx="3.722" cy="3.722" r="3.722" transform="translate(200.473 15.329)" fill="none" stroke="#3f3d56" stroke-miterlimit="10" stroke-width="2"/>
      <ellipse id="Elipse_42" data-name="Elipse 42" cx="38.34" cy="7.063" rx="38.34" ry="7.063" transform="translate(0 178.875)" fill="#f2f2f2"/>
      <path id="Trazado_2866" data-name="Trazado 2866" d="M236.112,493.658l-6.84,3.451.443.882,6.84-3.451Z" transform="translate(-171.442 -369.97)" fill="#6c63ff"/>
      <path id="Trazado_2867" data-name="Trazado 2867" d="M341.383,532.212l-.307,1.844s.461,12.752-2.919,8.758-1.076-9.372-1.076-9.372L338,531.9Z" transform="translate(-277.825 -414.929)" fill="#fbbebe"/>
      <path id="Trazado_2868" data-name="Trazado 2868" d="M275.669,299.221s-.615,6.453-.922,6.76,4.609,6.146,4.609,6.146l4.3-3.995s-.307-5.838.615-7.068S275.669,299.221,275.669,299.221Z" transform="translate(-231.777 -240.533)" fill="#fbbebe"/>
      <path id="Trazado_2869" data-name="Trazado 2869" d="M275.669,299.221s-.615,6.453-.922,6.76,4.609,6.146,4.609,6.146l4.3-3.995s-.307-5.838.615-7.068S275.669,299.221,275.669,299.221Z" transform="translate(-231.777 -240.533)" opacity="0.1"/>
      <path id="Trazado_2870" data-name="Trazado 2870" d="M113.453,698.161v5.531L111.3,704l-3.073-.922.922-5.838Z" transform="translate(-80.93 -522.637)" fill="#3f3d56"/>
      <path id="Trazado_2871" data-name="Trazado 2871" d="M194.23,770.314s-.922-2.458-2.458-2.151-1.844,2.151-1.844,2.151-1.229,4.609-3.073,6.146-3.687,5.531,0,6.146,6.76-.922,6.76-1.229a3.731,3.731,0,0,1,2.458-2.458c1.536-.307,2.766-.615,2.766-1.844a4.849,4.849,0,0,0-.922-2.458s-.307-5.829-.922-5.065a6.114,6.114,0,0,0-.922,1.993Z" transform="translate(-164.473 -592.024)" fill="#2f2e41"/>
      <path id="Trazado_2872" data-name="Trazado 2872" d="M177.679,689.019l-1.229,4.609,3.073.615,1.536-1.536.307-3.995Z" transform="translate(-131.943 -516.261)" fill="#3f3d56"/>
      <path id="Trazado_2873" data-name="Trazado 2873" d="M276.336,761.569a5,5,0,0,1,1.844-.922h.922s0-2.151,1.536-2.151,1.229,1.536,1.229,1.536,3.38,5.224,4.3,6.146,5.838,3.687,1.844,4.916-6.76,1.229-8.6-.922a9.056,9.056,0,0,0-3.073-.922c-1.229,0-2.766-.615-2.766-1.536a9.286,9.286,0,0,1,.922-2.766s.615-5.531.922-4.917S276.336,761.569,276.336,761.569Z" transform="translate(-230.907 -584.815)" fill="#2f2e41"/>
      <path id="Trazado_2874" data-name="Trazado 2874" d="M211.981,474.647v10.14s-3.38,19.666-3.38,26.119-5.224,37.181-2.766,37.8,8.3,1.536,8.6.615S216.9,519.2,217.205,518.9s6.76-24.583,6.76-24.583l1.229.307.615,27.655s-3.073,24.89-1.536,24.89,7.989-.307,7.989-2.151,3.38-35.952,3.38-35.952,3.995-27.041,2.458-29.806a10.091,10.091,0,0,1-1.536-4.3Z" transform="translate(-179.766 -372.564)" fill="#2f2e41"/>
      <circle id="Elipse_43" data-name="Elipse 43" cx="6.146" cy="6.146" r="6.146" transform="translate(42.817 51.214)" fill="#fbbebe"/>
      <path id="Trazado_2875" data-name="Trazado 2875" d="M231.117,322.56s-3.841-3.227-4.148-4.456a15.394,15.394,0,0,0-2,2.3c0,.307-8.6,1.229-10.755,3.687s-3.995,7.682-3.995,7.682l5.224,9.833s.307,5.531.307,6.146-1.536,10.448-.922,10.755,6.76,3.38,11.984,2.766,10.448-1.536,11.984-1.536,2.766.615,2.766,0-.922-1.844-.922-2.458-.307-2.151-.307-3.073-.615-2.458-.615-3.687,6.76-17.822,6.76-17.822a9.783,9.783,0,0,0-5.224-7.682c-4.917-2.458-5.531-3.38-5.531-3.38s-.1-1.844-.355-1.844-1.181,2.766-3.639,3.073Z" transform="translate(-183.538 -254.775)" fill="#d0cde1"/>
      <path id="Trazado_2876" data-name="Trazado 2876" d="M122.847,425.6l2.151,3.38,5.531-1.229-3.995-4.609Z" transform="translate(-91.86 -317.124)" fill="#fbbebe"/>
      <path id="Trazado_2877" data-name="Trazado 2877" d="M326.623,366.224l1.844,2.458s3.687,17.822,3.073,24.275-1.229,11.369-1.229,11.369,1.229,4.609.307,4.609-6.453.307-6.453-.615.615-6.76.615-6.76l-1.536-13.52-3.38-4.609Z" transform="translate(-265.523 -290.858)" fill="#d0cde1"/>
      <path id="Trazado_2878" data-name="Trazado 2878" d="M267.145,254.6a5.323,5.323,0,0,1,1.216-.1c.474-.08.9-.431,1.376-.387a2.645,2.645,0,0,1,.655.213.855.855,0,0,0,.671.024.381.381,0,0,0,.146-.573,1.9,1.9,0,0,0,1.092-.47.816.816,0,0,1,.208-.156.68.68,0,0,1,.535.083l.7.324a.89.89,0,0,1,.4.287c.084.13.1.306.219.406.151.127.377.065.574.078a.735.735,0,0,1,.663.716c0,.206-.078.46.085.586.095.073.229.062.34.107.287.117.289.517.246.824s-.021.713.274.807c.208.067.421-.075.637-.107a1.57,1.57,0,0,1,.918.312.852.852,0,0,0,.927.048.874.874,0,0,0,.155-.86,4.74,4.74,0,0,0-.451-1.233.782.782,0,0,1-.131-.384.7.7,0,0,1,.322-.469,2.137,2.137,0,0,0,.88-1,4.282,4.282,0,0,0,0-.994,5.842,5.842,0,0,0,.094-1.205c-.137-.721-.939-1.068-1.457-1.588-.712-.714-.943-1.857-1.783-2.415a9.265,9.265,0,0,0-2.316-.648c-.841-.28-1.517-.925-2.346-1.238a3.27,3.27,0,0,0-2.779.244,2.782,2.782,0,0,1-.817.417,2.939,2.939,0,0,1-.744-.009,2.871,2.871,0,0,0-1.418.293.793.793,0,0,0-.4.349c-.148.33.067.845-.258,1-.152.074-.331,0-.5.007a.956.956,0,0,0-.736.581,2.783,2.783,0,0,1-.516.83c-.4.351-1.128.409-1.233.931a5.064,5.064,0,0,0,.038.661c-.03.463-.525.814-.5,1.277.03.534.708.795.89,1.3a1.885,1.885,0,0,1-.169,1.185,1.026,1.026,0,0,0,.16,1.133c.127.1.289.137.419.231.334.243.33.734.293,1.145a.538.538,0,0,0,.121.49.454.454,0,0,0,.371.045,1.516,1.516,0,0,0,.959-.722c.108-.178.129-.335.325-.429.133-.064.294-.007.429-.09C266.578,256.06,266.357,254.932,267.145,254.6Z" transform="translate(-222.357 -200.18)" fill="#2f2e41"/>
      <path id="Trazado_2879" data-name="Trazado 2879" d="M199.1,368.661l-.922.922s-5.531,16.593-3.687,20.281,5.531,12.906,6.76,12.6,5.531-3.073,5.531-3.38-5.224-8.911-5.224-8.911-.615-1.844-.307-2.151.307,0,0-.615-.307,0,.307-.615.615-.615.615-.922,1.844-7.989,1.844-7.989Z" transform="translate(-171.491 -292.649)" fill="#d0cde1"/>
      <path id="Trazado_2880" data-name="Trazado 2880" d="M128.329,440.516l6.76-2.151.922,2.151-7.375,1.536Z" transform="translate(-95.96 -328.528)" fill="#2f2e41"/>
      <path id="Trazado_2881" data-name="Trazado 2881" d="M128.329,440.516l6.76-2.151.922,2.151-7.375,1.536Z" transform="translate(-95.96 -328.528)" opacity="0.1"/>
      <path id="Trazado_2882" data-name="Trazado 2882" d="M164.876,262.939l5.224,4.3.615-.922Z" transform="translate(-123.288 -197.059)" opacity="0.1"/>
      <path id="Trazado_2883" data-name="Trazado 2883" d="M195.365,267.812l-3.687,2.151.307.922Z" transform="translate(-143.33 -200.708)" opacity="0.1"/>
    </g>
  </g>
</svg>
