<svg xmlns="http://www.w3.org/2000/svg" width="381.838" height="381.838" viewBox="0 0 381.838 381.838">
  <g id="Grupo_4052" data-name="Grupo 4052" transform="translate(-756.591 -1273.572)">
    <path id="Shape_505_copy" data-name="Shape 505 copy" d="M979.072,1453.7s-52.174-21.957-52.053,27.974c.1,39.949.033,63.99-30.38,64.333s-52.414,70.518,19.493,72.615,99.956-58.173,121.487-3.306,100.727,40.51,93.645-14.235,4.672-58.708,29.35-80.273c48.31-42.217-35.346-149.711-97.8-81.937S1001.786,1468.729,979.072,1453.7Z" transform="translate(585.485 3271.149) rotate(-135)" fill="#f3f8fa"/>
    <g id="Grupo_4034" data-name="Grupo 4034" transform="translate(823 1376)">
      <path id="Trazado_3175" data-name="Trazado 3175" d="M895.661,734.046c-1.623,6.179-7.309,10.041-7.309,10.041s-3.055-6.157-1.432-12.337,7.309-10.041,7.309-10.041S897.283,727.867,895.661,734.046Z" transform="translate(-694.895 -571.314)" fill="#3f3d56"/>
      <path id="Trazado_3176" data-name="Trazado 3176" d="M898.822,752.94c-4.545,4.49-5.053,11.345-5.053,11.345s6.86-.426,11.405-4.916,5.053-11.345,5.053-11.345S903.367,748.45,898.822,752.94Z" transform="translate(-700.518 -591.515)" fill="#0c9fff"/>
      <path id="Trazado_3177" data-name="Trazado 3177" d="M181.45,641.61h8.559l21.093-8.254s14.979-6.114,13.756,5.5-3.363,27.206-3.363,27.206-6.725-3.057-10.393-2.14-1.223-18.647-1.223-18.647-29.958,14.367-32.709,12.533-3.363-14.673-3.363-14.673Z" transform="translate(-147.825 -502.253)" fill="#2f2e41"/>
      <path id="Trazado_3178" data-name="Trazado 3178" d="M181.45,641.61h8.559l21.093-8.254s14.979-6.114,13.756,5.5-3.363,27.206-3.363,27.206-6.725-3.057-10.393-2.14-1.223-18.647-1.223-18.647-29.958,14.367-32.709,12.533-3.363-14.673-3.363-14.673Z" transform="translate(-147.825 -502.253)" opacity="0.1"/>
      <path id="Trazado_3179" data-name="Trazado 3179" d="M239.379,558.82,249.737,573.7l24.149,20.176s22.315,5.2,19.258,8.865-21.7-3.668-21.7-3.668-27.818-20.175-28.735-21.7-11-15.9-11-15.9Z" transform="translate(-192.268 -446.269)" fill="#a0616a"/>
      <path id="Trazado_3180" data-name="Trazado 3180" d="M239.379,558.82,249.737,573.7l24.149,20.176s22.315,5.2,19.258,8.865-21.7-3.668-21.7-3.668-27.818-20.175-28.735-21.7-11-15.9-11-15.9Z" transform="translate(-192.268 -446.269)" opacity="0.1"/>
      <path id="Trazado_3181" data-name="Trazado 3181" d="M204.948,507.092l6.725,13.145s-1.528,6.419-3.974,7.031-12.839-7.948-12.839-7.948Z" transform="translate(-163.986 -406.397)" fill="#d0cde1"/>
      <path id="Trazado_3182" data-name="Trazado 3182" d="M204.948,507.092l6.725,13.145s-1.528,6.419-3.974,7.031-12.839-7.948-12.839-7.948Z" transform="translate(-163.986 -406.397)" opacity="0.1"/>
      <path id="Trazado_3183" data-name="Trazado 3183" d="M560.753,643.608l1.987,8.195a.512.512,0,0,1-.01.277l-9.011,28.161a.512.512,0,0,1-1-.1l-1.247-10.97a.511.511,0,0,1,.022-.216l8.271-25.385a.512.512,0,0,1,.984.038Z" transform="translate(-437.747 -511.057)" fill="#2f2e41"/>
      <path id="Trazado_3184" data-name="Trazado 3184" d="M500.044,575.493l1.834,7.031L493.93,608.2l-1.834-7.948Z" transform="translate(-377.768 -442.25)" fill="#f2f2f2"/>
      <path id="Trazado_3185" data-name="Trazado 3185" d="M415.747,765.886c.306.917,31.792-.306,32.1-.611a6.634,6.634,0,0,0,.672-1.223c.287-.611.55-1.223.55-1.223l-1.223-9.9-31.18-1.107s-.78,8.388-.938,12.228A9.176,9.176,0,0,0,415.747,765.886Z" transform="translate(-333.517 -594.433)" fill="#2f2e41"/>
      <path id="Trazado_3186" data-name="Trazado 3186" d="M431.558,689.965l.611,8.559H418.413v-8.559Z" transform="translate(-321.204 -530.128)" opacity="0.1"/>
      <path id="Trazado_3187" data-name="Trazado 3187" d="M372.415,701.752l.082-.016-.388,3.685h-7.642v-3.668Z" transform="translate(-279.791 -539.164)" opacity="0.1"/>
      <path id="Trazado_3188" data-name="Trazado 3188" d="M415.747,806.289c.306.917,31.792-.306,32.1-.611a6.634,6.634,0,0,0,.672-1.223H415.726A9.177,9.177,0,0,0,415.747,806.289Z" transform="translate(-333.517 -634.836)" opacity="0.1"/>
      <circle id="Elipse_1252" data-name="Elipse 1252" cx="13.756" cy="13.756" r="13.756" transform="translate(31.792 68.987)" fill="#a0616a"/>
      <path id="Trazado_3189" data-name="Trazado 3189" d="M184.88,442.941s-4.585,7.948-5.5,12.228-13.756-8.559-13.756-8.559l-1.681-4.432s12.075-5.655,11.158-10.241S184.88,442.941,184.88,442.941Z" transform="translate(-140.249 -348.01)" fill="#a0616a"/>
      <path id="Trazado_3190" data-name="Trazado 3190" d="M216.112,584.722l12.533,16.507L258.6,623.545s21.7,4.585,16.813,7.948-18.953-3.057-18.953-3.057-30.263-16.2-36.683-22.927-18.341-18.036-18.341-18.036Z" transform="translate(-169.036 -466.153)" fill="#a0616a"/>
      <path id="Trazado_3191" data-name="Trazado 3191" d="M102.332,688.952,106,694.76l21.893-6.888a17.213,17.213,0,0,1,14.332,1.729c3.821,2.407,6.267,6.228.764,11.884-11,11.31-18.341,5.2-18.341,5.2s-36.988,17.424-43.1,8.865-6.419-12.839-6.419-12.839S98.664,688.035,102.332,688.952Z" transform="translate(-72.069 -544.704)" fill="#2f2e41"/>
      <path id="Trazado_3192" data-name="Trazado 3192" d="M283.536,773s9.782,6.419-1.834,9.476-20.175-1.223-20.175-1.223-10.088,0-10.088-5.2,3.363-5.808,3.363-5.808l10.393,1.528S277.727,768.411,283.536,773Z" transform="translate(-207.419 -608.574)" fill="#d0cde1"/>
      <path id="Trazado_3193" data-name="Trazado 3193" d="M209.172,359.5a10.258,10.258,0,0,0,2.883,1.033,2.631,2.631,0,0,0,2.659-1.139,3.576,3.576,0,0,0,.3-1.617,7.2,7.2,0,0,0-1.148-4.792c-.677-.827-1.665-1.348-2.366-2.155a10.181,10.181,0,0,1-1.2-1.954c-1.363-2.56-3.381-5.02-6.185-5.758a13.413,13.413,0,0,0-3.61-.276l-7.062.1a12.294,12.294,0,0,0-3.4.366c-2.273.687-3.928,2.6-5.444,4.427a27.683,27.683,0,0,0-3.122,4.309,15.12,15.12,0,0,0-1.792,7.408,6.931,6.931,0,0,0,.254,1.96,10.879,10.879,0,0,0,.77,1.692c1.324,2.6,2.111,5.85.619,8.36A16.062,16.062,0,0,0,188.2,366.8a12.855,12.855,0,0,1,2.383-2.88c1.019-.728,2.679-.791,3.333.277a2.987,2.987,0,0,1,.337,1.4,6.413,6.413,0,0,0,.386,2.361,1.77,1.77,0,0,0,1.922,1.1c1.331-.375,1.2-2.418,2.229-3.346.779-.7,1.98-.57,2.98-.89a4.422,4.422,0,0,0,2.538-2.5c.379-.849.373-3.072,1.09-3.532C206.3,358.211,208.339,359.128,209.172,359.5Z" transform="translate(-152.34 -280.198)" fill="#2f2e41"/>
      <path id="Trazado_3194" data-name="Trazado 3194" d="M84.567,472.157a3.628,3.628,0,0,1,1.888,0c1.962.527,6.361,1.921,7.3,4.044,1.223,2.751,5.5,7.031,5.5,7.031s5.808,5.808,4.585,9.782-5.808,8.559-5.808,8.559,1.223,18.953-4.891,23.844-8.559,1.528-8.559,6.114-18.953,18.953-22.621,10.088c0,0,1.834-16.507,1.223-22.315C62.588,513.583,63.47,477.868,84.567,472.157Z" transform="translate(-61.968 -379.646)" fill="#d0cde1"/>
      <path id="Trazado_3195" data-name="Trazado 3195" d="M154.287,503.123s18.647,13.756,15.284,19.564c0,0-11.311,5.5-13.756,5.2s-11.922-11-14.367-11.922S137.78,498.538,154.287,503.123Z" transform="translate(-121.884 -402.741)" fill="#d0cde1"/>
      <circle id="Elipse_1253" data-name="Elipse 1253" cx="15.101" cy="15.101" r="15.101" transform="translate(100.613 39.94)" fill="#f2f2f2"/>
      <path id="Trazado_3196" data-name="Trazado 3196" d="M817.274,166.915H732.649V149.207h84.625Zm-84.252-.373H816.9V149.58h-83.88Z" transform="translate(-576.831 -131.359)" fill="#3f3d56"/>
      <rect id="Rectángulo_2555" data-name="Rectángulo 2555" width="84.252" height="17.335" transform="translate(150.04 21.389)" fill="#016db3"/>
      <circle id="Elipse_1254" data-name="Elipse 1254" cx="1.305" cy="1.305" r="1.305" transform="translate(95.475 2.237)" fill="#6c63ff"/>
      <circle id="Elipse_1255" data-name="Elipse 1255" cx="1.305" cy="1.305" r="1.305" transform="translate(99.949 2.237)" fill="#6c63ff"/>
      <circle id="Elipse_1256" data-name="Elipse 1256" cx="1.305" cy="1.305" r="1.305" transform="translate(104.422 2.237)" fill="#6c63ff"/>
      <path id="Trazado_3197" data-name="Trazado 3197" d="M619.435,174.533H462.487V72.386H619.435ZM462.86,174.16h156.2V72.759H462.86Z" transform="translate(-369.435 -72.386)" fill="#3f3d56"/>
      <rect id="Rectángulo_2556" data-name="Rectángulo 2556" width="156.575" height="0.373" transform="translate(93.238 5.654)" fill="#3f3d56"/>
      <path id="Trazado_3198" data-name="Trazado 3198" d="M475.21,81.787A1.491,1.491,0,1,1,476.7,80.3,1.491,1.491,0,0,1,475.21,81.787Zm0-2.61a1.118,1.118,0,1,0,1.118,1.118A1.118,1.118,0,0,0,475.21,79.177Z" transform="translate(-378.058 -77.313)" fill="#3f3d56"/>
      <path id="Trazado_3199" data-name="Trazado 3199" d="M494.466,81.787a1.491,1.491,0,1,1,1.491-1.491A1.491,1.491,0,0,1,494.466,81.787Zm0-2.61a1.118,1.118,0,1,0,1.118,1.118A1.118,1.118,0,0,0,494.466,79.177Z" transform="translate(-392.84 -77.313)" fill="#3f3d56"/>
      <path id="Trazado_3200" data-name="Trazado 3200" d="M513.721,81.787a1.491,1.491,0,1,1,1.491-1.491A1.491,1.491,0,0,1,513.721,81.787Zm0-2.61A1.118,1.118,0,1,0,514.84,80.3a1.118,1.118,0,0,0-1.118-1.118Z" transform="translate(-407.622 -77.313)" fill="#3f3d56"/>
      <rect id="Rectángulo_2557" data-name="Rectángulo 2557" width="0.373" height="96.264" transform="translate(142.21 5.841)" fill="#3f3d56"/>
      <rect id="Rectángulo_2558" data-name="Rectángulo 2558" width="27.401" height="3.728" transform="translate(160.012 53.028)" fill="#f2f2f2"/>
      <rect id="Rectángulo_2559" data-name="Rectángulo 2559" width="27.401" height="3.728" transform="translate(203.07 53.028)" fill="#f2f2f2"/>
      <path id="Trazado_3201" data-name="Trazado 3201" d="M784.091,296.52H756.317v-4.1h27.773Zm-27.4-.373h27.028v-3.355H756.69Z" transform="translate(-595 -241.437)" fill="#3f3d56"/>
      <rect id="Rectángulo_2560" data-name="Rectángulo 2560" width="27.401" height="3.728" transform="translate(160.012 81.842)" fill="#f2f2f2"/>
      <path id="Trazado_3202" data-name="Trazado 3202" d="M784.091,420.878H756.317v-4.1h27.773Zm-27.4-.373h27.028V417.15H756.69Z" transform="translate(-595 -336.981)" fill="#3f3d56"/>
      <rect id="Rectángulo_2561" data-name="Rectángulo 2561" width="70.459" height="3.728" transform="translate(160.105 67.063)" fill="#f2f2f2"/>
      <path id="Trazado_3203" data-name="Trazado 3203" d="M827.55,358.7H756.718v-4.1H827.55Zm-70.459-.373h70.086v-3.355H757.091Z" transform="translate(-595.308 -289.209)" fill="#3f3d56"/>
      <path id="Trazado_3204" data-name="Trazado 3204" d="M969.424,296.52H941.651v-4.1h27.773Zm-27.4-.373h27.028v-3.355H942.024Z" transform="translate(-737.276 -241.437)" fill="#3f3d56"/>
      <path id="Trazado_3205" data-name="Trazado 3205" d="M520.366,256.511A15.334,15.334,0,1,1,535.7,241.178,15.334,15.334,0,0,1,520.366,256.511Zm0-30.2a14.869,14.869,0,1,0,14.869,14.869A14.869,14.869,0,0,0,520.366,226.309Z" transform="translate(-402.096 -190.305)" fill="#3f3d56"/>
      <rect id="Rectángulo_2562" data-name="Rectángulo 2562" width="65.749" height="0.465" transform="translate(173.796 172.498)" fill="#3f3d56"/>
    </g>
  </g>
</svg>
