<svg xmlns="http://www.w3.org/2000/svg" xmlns:xlink="http://www.w3.org/1999/xlink" width="382.37" height="355.284" viewBox="0 0 382.37 355.284">
  <defs>
    <linearGradient id="linear-gradient" x1="-11.741" y1="5.084" x2="-11.741" y2="4.933" gradientUnits="objectBoundingBox">
      <stop offset="0" stop-color="gray" stop-opacity="0.251"/>
      <stop offset="0.535" stop-color="gray" stop-opacity="0.122"/>
      <stop offset="1" stop-color="gray" stop-opacity="0.102"/>
    </linearGradient>
  </defs>
  <g id="Grupo_4053" data-name="Grupo 4053" transform="translate(-1206.325 -1286.849)">
    <path id="Shape_505_copy_2" data-name="Shape 505 copy 2" d="M1387.072,1453.7s-52.174-21.957-52.053,27.974c.1,39.949.033,63.99-30.38,64.333s-52.414,70.518,19.493,72.615,99.956-58.173,121.487-3.306,100.727,40.51,93.645-14.235,4.672-58.708,29.35-80.273c48.31-42.217-35.346-149.711-97.8-81.937S1409.786,1468.729,1387.072,1453.7Z" transform="translate(926.263 -578.306) rotate(30)" fill="#f3f8fa"/>
    <g id="Grupo_4037" data-name="Grupo 4037" transform="translate(1272.996 1374)">
      <ellipse id="Elipse_46" data-name="Elipse 46" cx="11.031" cy="1.655" rx="11.031" ry="1.655" transform="translate(2.971 99.381) rotate(-63.611)" fill="#e0e0e0"/>
      <ellipse id="Elipse_47" data-name="Elipse 47" cx="11.031" cy="1.124" rx="11.031" ry="1.124" transform="translate(141.279 168.069) rotate(-63.611)" fill="#e0e0e0"/>
      <rect id="Rectángulo_7" data-name="Rectángulo 7" width="6.618" height="22.061" transform="translate(69.278 127.386) rotate(39.547)" fill="#ff4100"/>
      <rect id="Rectángulo_8" data-name="Rectángulo 8" width="7.447" height="22.061" transform="translate(69.896 151.673) rotate(-166.769)" opacity="0.05"/>
      <path id="Trazado_3206" data-name="Trazado 3206" d="M0,0H6.618V22.061H0Z" transform="translate(69.896 151.673) rotate(-166.769)" fill="#ff4100"/>
      <rect id="Rectángulo_10" data-name="Rectángulo 10" width="23.164" height="153.878" transform="translate(4.208 100.61) rotate(-63.611)" fill="url(#linear-gradient)"/>
      <path id="Trazado_2884" data-name="Trazado 2884" d="M354.256,506.787c-2.7-1.294-139.819-69.374-137.843-68.394,7.611-11.616,9.806-19.762,9.806-19.762l137.843,68.394S359.221,495.52,354.256,506.787Z" transform="translate(-211.961 -338.277)" fill="#ffbc00" opacity="0.4"/>
      <rect id="Rectángulo_11" data-name="Rectángulo 11" width="12.685" height="22.061" transform="translate(74.534 110.262) rotate(26.389)" opacity="0.05"/>
      <rect id="Rectángulo_12" data-name="Rectángulo 12" width="11.582" height="22.061" transform="translate(75.028 110.507) rotate(26.389)" fill="#ff4100"/>
      <rect id="Rectángulo_13" data-name="Rectángulo 13" width="7.721" height="22.061" transform="translate(76.51 111.242) rotate(26.389)" opacity="0.05"/>
      <rect id="Rectángulo_14" data-name="Rectángulo 14" width="6.618" height="22.061" transform="translate(77.004 111.488) rotate(26.389)" fill="#ff4100"/>
      <circle id="Elipse_48" data-name="Elipse 48" cx="0.92" cy="0.92" r="0.92" transform="translate(81.215 176.328)" fill="#dbdbdb"/>
      <g id="Grupo_4029" data-name="Grupo 4029" transform="translate(7.042 151.498)" opacity="0.5">
        <rect id="Rectángulo_15" data-name="Rectángulo 15" width="0.943" height="5.343" transform="translate(2.2)" fill="#0c9fff"/>
        <rect id="Rectángulo_16" data-name="Rectángulo 16" width="0.943" height="5.343" transform="translate(5.343 2.2) rotate(90)" fill="#0c9fff"/>
      </g>
      <g id="Grupo_4030" data-name="Grupo 4030" transform="translate(244.661 84.864)" opacity="0.5">
        <rect id="Rectángulo_17" data-name="Rectángulo 17" width="0.943" height="5.343" transform="translate(2.2)" fill="#0c9fff"/>
        <rect id="Rectángulo_18" data-name="Rectángulo 18" width="0.943" height="5.343" transform="translate(5.343 2.2) rotate(90)" fill="#0c9fff"/>
      </g>
      <g id="Grupo_4031" data-name="Grupo 4031" transform="translate(12.699 18.544)" opacity="0.5">
        <rect id="Rectángulo_19" data-name="Rectángulo 19" width="0.943" height="5.343" transform="translate(2.2)" fill="#0c9fff"/>
        <rect id="Rectángulo_20" data-name="Rectángulo 20" width="0.943" height="5.343" transform="translate(5.343 2.2) rotate(90)" fill="#0c9fff"/>
      </g>
      <g id="Grupo_4032" data-name="Grupo 4032" transform="translate(216.373 10.372)" opacity="0.5">
        <rect id="Rectángulo_21" data-name="Rectángulo 21" width="0.943" height="5.343" transform="translate(2.2)" fill="#0c9fff"/>
        <rect id="Rectángulo_22" data-name="Rectángulo 22" width="0.943" height="5.343" transform="translate(5.343 2.2) rotate(90)" fill="#0c9fff"/>
      </g>
      <path id="Trazado_2885" data-name="Trazado 2885" d="M206.169,411.772a1.155,1.155,0,0,1-.644-1.4.557.557,0,0,0,.025-.128h0a.579.579,0,0,0-1.041-.384h0a.556.556,0,0,0-.064.114,1.155,1.155,0,0,1-1.4.644.555.555,0,0,0-.128-.025h0a.579.579,0,0,0-.384,1.04h0a.554.554,0,0,0,.114.064,1.155,1.155,0,0,1,.644,1.4.555.555,0,0,0-.025.128h0a.579.579,0,0,0,1.041.384h0a.556.556,0,0,0,.064-.114,1.155,1.155,0,0,1,1.4-.644.555.555,0,0,0,.128.025h0a.579.579,0,0,0,.384-1.041h0A.557.557,0,0,0,206.169,411.772Z" transform="translate(-202.303 -332.108)" fill="#015d98" opacity="0.5"/>
      <path id="Trazado_2886" data-name="Trazado 2886" d="M378.169,214.772a1.155,1.155,0,0,1-.644-1.4.555.555,0,0,0,.025-.128h0a.579.579,0,0,0-1.04-.384h0a.555.555,0,0,0-.064.114,1.155,1.155,0,0,1-1.4.644.554.554,0,0,0-.128-.025h0a.579.579,0,0,0-.384,1.041h0a.556.556,0,0,0,.114.064,1.155,1.155,0,0,1,.644,1.4.557.557,0,0,0-.025.128h0a.579.579,0,0,0,1.04.384h0a.554.554,0,0,0,.064-.114,1.155,1.155,0,0,1,1.4-.644.557.557,0,0,0,.128.025h0a.579.579,0,0,0,.384-1.041h0a.555.555,0,0,0-.114-.064Z" transform="translate(-320.241 -197.028)" fill="#015d98" opacity="0.5"/>
      <path id="Trazado_2887" data-name="Trazado 2887" d="M588.169,725.772a1.155,1.155,0,0,1-.644-1.4.555.555,0,0,0,.025-.128h0a.579.579,0,0,0-1.04-.384h0a.556.556,0,0,0-.064.114,1.155,1.155,0,0,1-1.4.644.553.553,0,0,0-.128-.025h0a.579.579,0,0,0-.384,1.041h0a.555.555,0,0,0,.114.064,1.155,1.155,0,0,1,.644,1.4.558.558,0,0,0-.025.128h0a.579.579,0,0,0,1.041.384h0a.553.553,0,0,0,.064-.114,1.155,1.155,0,0,1,1.4-.644.559.559,0,0,0,.128.025h0a.579.579,0,0,0,.384-1.041h0A.558.558,0,0,0,588.169,725.772Z" transform="translate(-464.236 -547.415)" fill="#015d98" opacity="0.5"/>
      <circle id="Elipse_49" data-name="Elipse 49" cx="1.886" cy="1.886" r="1.886" transform="translate(236.803 137.668)" fill="#ff4100" opacity="0.7"/>
      <circle id="Elipse_50" data-name="Elipse 50" cx="1.886" cy="1.886" r="1.886" transform="translate(195.314 149.612)" fill="#4d8af0" opacity="0.5"/>
      <circle id="Elipse_51" data-name="Elipse 51" cx="1.886" cy="1.886" r="1.886" transform="translate(30.615 168.156)" fill="#0c9fff" opacity="0.5"/>
      <circle id="Elipse_52" data-name="Elipse 52" cx="1.886" cy="1.886" r="1.886" transform="translate(127.423)" fill="#ff4100" opacity="0.7"/>
      <path id="Trazado_2888" data-name="Trazado 2888" d="M390.741,464.94,383.2,476.255s2.514,11.63,58.148,11.315,60.033-11.315,60.033-11.315l-10.372-15.087L459.26,439.481Z" transform="translate(-326.337 -352.574)" fill="#015d98"/>
      <path id="Trazado_2889" data-name="Trazado 2889" d="M390.741,464.94,383.2,476.255s2.514,11.63,58.148,11.315,60.033-11.315,60.033-11.315l-10.372-15.087L459.26,439.481Z" transform="translate(-326.337 -352.574)" opacity="0.15"/>
      <path id="Trazado_2890" data-name="Trazado 2890" d="M236.1,114.29l-99.008,43.689L16.394,114.29,127.032,64l54.31,25.041,1.946.9Z" transform="translate(-11.238 -43.884)" fill="#016db3"/>
      <path id="Trazado_2891" data-name="Trazado 2891" d="M236.1,114.29l-99.008,43.689L16.394,114.29,127.032,64l54.31,25.041,1.946.9Z" transform="translate(-11.238 -43.884)" opacity="0.15"/>
      <path id="Trazado_2892" data-name="Trazado 2892" d="M545.179,179.391l-1.886.113-2.109-35.835,1.946.9Z" transform="translate(-371.081 -98.513)" fill="#f5f5f5"/>
      <path id="Trazado_2893" data-name="Trazado 2893" d="M392,372.515l-8.8,53.433s63.177-20.43,118.181,0l-8.172-56.576S419.343,360.256,392,372.515Z" transform="translate(-326.337 -302.266)" fill="#0c9fff"/>
      <ellipse id="Elipse_53" data-name="Elipse 53" cx="9.115" cy="6.286" rx="9.115" ry="6.286" transform="translate(164.826 79.206)" fill="#f5f5f5"/>
    </g>
  </g>
</svg>
